<svg width="25" height="25" viewBox="0 0 25 25" fill="none" xmlns="http://www.w3.org/2000/svg">
<path d="M12.4994 6.24981C11.1876 6.24981 9.90915 6.66254 8.84501 7.42953C7.78087 8.19651 6.98504 9.27888 6.57023 10.5233C6.15542 11.7677 6.14267 13.1111 6.53379 14.3632C6.92491 15.6153 7.70006 16.7125 8.74945 17.4996V22.4995C8.74945 23.1625 9.01284 23.7984 9.48167 24.2672C9.9505 24.7361 10.5864 24.9994 11.2494 24.9994H13.7494C14.4124 24.9994 15.0483 24.7361 15.5171 24.2672C15.9859 23.7984 16.2493 23.1625 16.2493 22.4995V17.4996C17.2987 16.7125 18.0739 15.6153 18.465 14.3632C18.8561 13.1111 18.8433 11.7677 18.4285 10.5233C18.0137 9.27888 17.2179 8.19651 16.1537 7.42953C15.0896 6.66254 13.8111 6.24981 12.4994 6.24981ZM14.3743 15.7371C14.1836 15.8473 14.0253 16.0058 13.9156 16.1968C13.8058 16.3878 13.7485 16.6043 13.7494 16.8246V22.4995H11.2494V16.8246C11.2503 16.6043 11.1929 16.3878 11.0832 16.1968C10.9734 16.0058 10.8152 15.8473 10.6244 15.7371C10.0558 15.4089 9.5834 14.9371 9.25437 14.3689C8.92533 13.8008 8.75122 13.1562 8.74945 12.4997C8.74945 11.5051 9.14453 10.5513 9.84778 9.84809C10.551 9.14484 11.5048 8.74976 12.4994 8.74976C13.4939 8.74976 14.4477 9.14484 15.151 9.84809C15.8542 10.5513 16.2493 11.5051 16.2493 12.4997C16.2475 13.1562 16.0734 13.8008 15.7444 14.3689C15.4154 14.9371 14.9429 15.4089 14.3743 15.7371Z" fill="#231F20"/>
<path d="M12.4999 4.9999C12.8314 4.9999 13.1493 4.86821 13.3837 4.63379C13.6182 4.39938 13.7499 4.08144 13.7499 3.74993V1.24998C13.7499 0.918461 13.6182 0.600525 13.3837 0.366109C13.1493 0.131693 12.8314 0 12.4999 0C12.1684 0 11.8504 0.131693 11.616 0.366109C11.3816 0.600525 11.2499 0.918461 11.2499 1.24998V3.74993C11.2499 4.08144 11.3816 4.39938 11.616 4.63379C11.8504 4.86821 12.1684 4.9999 12.4999 4.9999Z" fill="#231F20"/>
<path d="M23.7495 11.2498H21.2496C20.9181 11.2498 20.6001 11.3815 20.3657 11.6159C20.1313 11.8503 19.9996 12.1682 19.9996 12.4998C19.9996 12.8313 20.1313 13.1492 20.3657 13.3836C20.6001 13.618 20.9181 13.7497 21.2496 13.7497H23.7495C24.081 13.7497 24.399 13.618 24.6334 13.3836C24.8678 13.1492 24.9995 12.8313 24.9995 12.4998C24.9995 12.1682 24.8678 11.8503 24.6334 11.6159C24.399 11.3815 24.081 11.2498 23.7495 11.2498Z" fill="#231F20"/>
<path d="M3.74993 11.2498H1.24998C0.918461 11.2498 0.600525 11.3815 0.366109 11.6159C0.131693 11.8503 0 12.1682 0 12.4998C0 12.8313 0.131693 13.1492 0.366109 13.3836C0.600525 13.618 0.918461 13.7497 1.24998 13.7497H3.74993C4.08144 13.7497 4.39938 13.618 4.63379 13.3836C4.86821 13.1492 4.9999 12.8313 4.9999 12.4998C4.9999 12.1682 4.86821 11.8503 4.63379 11.6159C4.39938 11.3815 4.08144 11.2498 3.74993 11.2498Z" fill="#231F20"/>
<path d="M7.07475 5.52479L5.27479 3.74983C5.03112 3.51943 4.70591 3.39526 4.3707 3.40463C4.03549 3.41401 3.71773 3.55617 3.48732 3.79983C3.25692 4.04349 3.13275 4.3687 3.14213 4.70392C3.1515 5.03913 3.29366 5.35689 3.53732 5.58729L5.33729 7.32476C5.45808 7.44139 5.60113 7.5325 5.7579 7.59263C5.91468 7.65276 6.08196 7.68069 6.24977 7.67475C6.41815 7.67411 6.58466 7.63945 6.73931 7.57287C6.89396 7.50628 7.03357 7.40913 7.14975 7.28726C7.37287 7.04329 7.49025 6.72086 7.4762 6.39054C7.46214 6.06022 7.31779 5.74893 7.07475 5.52479Z" fill="#231F20"/>
<path d="M21.4869 3.81255C21.2527 3.57974 20.9359 3.44907 20.6056 3.44907C20.2754 3.44907 19.9586 3.57974 19.7244 3.81255L17.9244 5.52502C17.6916 5.75922 17.561 6.07602 17.561 6.40625C17.561 6.73648 17.6916 7.05328 17.9244 7.28748C18.0406 7.40936 18.1802 7.5065 18.3349 7.57309C18.4895 7.63968 18.6561 7.67433 18.8244 7.67498C19.1463 7.67369 19.4552 7.54833 19.6869 7.32498L21.4869 5.58752C21.604 5.47131 21.697 5.33307 21.7605 5.18074C21.8239 5.02842 21.8566 4.86505 21.8566 4.70003C21.8566 4.53502 21.8239 4.37164 21.7605 4.21932C21.697 4.067 21.604 3.92875 21.4869 3.81255Z" fill="#231F20"/>
</svg>
