<svg width="95" height="70" viewBox="0 0 95 70" fill="none" xmlns="http://www.w3.org/2000/svg">
<path d="M0 0H95V70H0V0ZM5.9375 5.83333V64.1667H89.0625V5.83333H5.9375ZM11.9106 58.4908C11.9106 58.4908 18.0856 17.5233 27.2561 17.5233C36.4266 17.5233 40.4433 46.4217 47.8177 46.4217C55.192 46.4217 54.6398 35.1313 60.037 35.1313C65.4342 35.1313 84.0245 58.4938 84.0245 58.4938L11.9106 58.4908ZM74.2188 29.1667C73.0492 29.1667 71.891 28.9403 70.8105 28.5006C69.7299 28.0609 68.7481 27.4164 67.9211 26.6039C67.0941 25.7913 66.438 24.8267 65.9904 23.7651C65.5429 22.7035 65.3125 21.5657 65.3125 20.4167C65.3125 19.2676 65.5429 18.1298 65.9904 17.0682C66.438 16.0066 67.0941 15.042 67.9211 14.2295C68.7481 13.417 69.7299 12.7725 70.8105 12.3327C71.891 11.893 73.0492 11.6667 74.2188 11.6667C76.5808 11.6667 78.8462 12.5885 80.5164 14.2295C82.1867 15.8704 83.125 18.096 83.125 20.4167C83.125 22.7373 82.1867 24.9629 80.5164 26.6039C78.8462 28.2448 76.5808 29.1667 74.2188 29.1667Z" fill="#EFEFEF"/>
</svg>
