<svg width="10" height="11" viewBox="0 0 10 11" fill="none" xmlns="http://www.w3.org/2000/svg">
<path d="M9.375 9.375H0.625C0.279822 9.375 0 9.65482 0 10C0 10.3452 0.279822 10.625 0.625 10.625H9.375C9.72018 10.625 10 10.3452 10 10C10 9.65482 9.72018 9.375 9.375 9.375Z" fill="#231F20"/>
<path d="M0 8.75V10C0 10.3452 0.279822 10.625 0.625 10.625C0.970178 10.625 1.25 10.3452 1.25 10V8.75C1.25 8.40482 0.970178 8.125 0.625 8.125C0.279822 8.125 0 8.40482 0 8.75Z" fill="#231F20"/>
<path d="M8.75 8.75V10C8.75 10.3452 9.02982 10.625 9.375 10.625C9.72018 10.625 10 10.3452 10 10V8.75C10 8.40482 9.72018 8.125 9.375 8.125C9.02982 8.125 8.75 8.40482 8.75 8.75Z" fill="#231F20"/>
<path d="M5.00001 7.5C4.87043 7.50099 4.74376 7.46167 4.63751 7.3875L2.13751 5.625C2.00276 5.52942 1.91135 5.38437 1.88324 5.22158C1.85513 5.05879 1.89262 4.89148 1.98751 4.75625C2.03487 4.68866 2.09516 4.63111 2.16489 4.58694C2.23461 4.54277 2.3124 4.51285 2.39375 4.49891C2.4751 4.48496 2.55841 4.48726 2.63887 4.50569C2.71932 4.52411 2.79533 4.55829 2.86251 4.60625L5.00001 6.1L7.12501 4.5C7.25761 4.40055 7.4243 4.35784 7.5884 4.38128C7.75249 4.40473 7.90055 4.49239 8.00001 4.625C8.09946 4.75761 8.14217 4.9243 8.11873 5.08839C8.09528 5.25248 8.00761 5.40055 7.87501 5.5L5.37501 7.375C5.26682 7.45614 5.13524 7.5 5.00001 7.5Z" fill="#231F20"/>
<path d="M5 6.25C4.83424 6.25 4.67526 6.18415 4.55805 6.06694C4.44084 5.94973 4.375 5.79076 4.375 5.625V0.625C4.375 0.45924 4.44084 0.300268 4.55805 0.183058C4.67526 0.065848 4.83424 0 5 0C5.16576 0 5.32473 0.065848 5.44194 0.183058C5.55915 0.300268 5.625 0.45924 5.625 0.625V5.625C5.625 5.79076 5.55915 5.94973 5.44194 6.06694C5.32473 6.18415 5.16576 6.25 5 6.25Z" fill="#231F20"/>
</svg>
