<svg width="30" height="30" viewBox="0 0 30 30" fill="none" xmlns="http://www.w3.org/2000/svg">
<path d="M24.375 11.25H18.75V5.625C18.7493 4.87931 18.4527 4.16437 17.9254 3.63708C17.3981 3.1098 16.6832 2.81324 15.9375 2.8125H13.9378C13.487 2.81441 13.0518 2.97787 12.7113 3.27321C12.3707 3.56855 12.1473 3.9762 12.0816 4.42219L11.2894 9.96937L7.93594 15H1.875V28.125H21.5625C23.3024 28.123 24.9704 27.431 26.2007 26.2007C27.431 24.9704 28.123 23.3024 28.125 21.5625V15C28.1238 14.0058 27.7283 13.0527 27.0253 12.3497C26.3223 11.6467 25.3692 11.2512 24.375 11.25ZM7.5 26.25H3.75V16.875H7.5V26.25ZM26.25 21.5625C26.2485 22.8052 25.7542 23.9967 24.8754 24.8754C23.9967 25.7542 22.8052 26.2485 21.5625 26.25H9.375V16.2216L13.0856 10.6556L13.9388 4.6875H15.9375C16.1861 4.6875 16.4246 4.78627 16.6004 4.96209C16.7762 5.1379 16.875 5.37636 16.875 5.625V13.125H24.375C24.8721 13.1255 25.3488 13.3232 25.7003 13.6747C26.0518 14.0262 26.2495 14.5029 26.25 15V21.5625Z" fill="black"/>
</svg>
