<svg width="30" height="30" viewBox="0 0 30 30" fill="none" xmlns="http://www.w3.org/2000/svg">
<path d="M12.143 26.4285H17.8572M15.0001 3.57139V2.14282M22.143 6.42854L23.5715 4.99997M7.85725 6.42854L6.42868 4.99997M22.143 19.2857L23.5715 20.7143M7.85725 19.2857L6.42868 20.7143M5.0001 12.1428H3.57153M26.4287 12.1428H25.0001M15.0001 7.14282C16.4505 7.14193 17.8587 7.63157 18.9956 8.53218C20.1326 9.43278 20.9316 10.6914 21.2628 12.1035C21.594 13.5157 21.4379 14.9983 20.8199 16.3105C20.2019 17.6227 19.1583 18.6873 17.8587 19.3314L17.8572 20.7143C17.8572 21.472 17.5562 22.1987 17.0204 22.7346C16.4846 23.2704 15.7579 23.5714 15.0001 23.5714C14.2423 23.5714 13.5156 23.2704 12.9798 22.7346C12.444 22.1987 12.143 21.472 12.143 20.7143V19.3314C10.8435 18.6874 9.79994 17.6229 9.18191 16.3108C8.56389 14.9988 8.40768 13.5163 8.73868 12.1042C9.06968 10.6922 9.86843 9.43356 11.0052 8.53284C12.1419 7.63213 13.5498 7.14226 15.0001 7.14282V7.14282Z" stroke="black" stroke-width="1.7" stroke-linecap="round" stroke-linejoin="round"/>
</svg>
