<svg width="22" height="22" viewBox="0 0 22 22" fill="none" xmlns="http://www.w3.org/2000/svg">
<path d="M11 0C8.82438 0 6.69765 0.645136 4.88871 1.85383C3.07978 3.06252 1.66989 4.78048 0.837327 6.79046C0.00476611 8.80044 -0.21307 11.0122 0.211366 13.1459C0.635802 15.2797 1.68345 17.2397 3.22182 18.7781C4.76019 20.3165 6.7202 21.3641 8.85398 21.7886C10.9878 22.213 13.1995 21.9952 15.2095 21.1626C17.2194 20.33 18.9374 18.9201 20.1461 17.1112C21.3548 15.3023 21.9999 13.1755 21.9999 11C21.9999 9.55542 21.7154 8.12503 21.1626 6.79046C20.6098 5.45588 19.7995 4.24325 18.7781 3.22181C17.7567 2.20037 16.544 1.39012 15.2095 0.837322C13.8749 0.284522 12.4445 0 11 0ZM15.7299 8.37097L10.703 14.9709C10.6005 15.1041 10.4689 15.2119 10.3183 15.2863C10.1676 15.3607 10.002 15.3995 9.83397 15.3999C9.66689 15.4008 9.5018 15.3637 9.35122 15.2912C9.20065 15.2188 9.06856 15.113 8.96497 14.9819L6.28098 11.561C6.19214 11.4468 6.12665 11.3163 6.08824 11.1769C6.04984 11.0375 6.03927 10.8919 6.05715 10.7483C6.07502 10.6048 6.12099 10.4662 6.19243 10.3405C6.26386 10.2147 6.35936 10.1043 6.47348 10.0155C6.70395 9.83604 6.99626 9.75553 7.2861 9.79163C7.42961 9.8095 7.56819 9.85547 7.69394 9.92691C7.81969 9.99834 7.93014 10.0938 8.01897 10.208L9.81197 12.496L13.97 6.99597C14.0581 6.88041 14.1681 6.78334 14.2937 6.71029C14.4194 6.63724 14.5581 6.58966 14.7022 6.57025C14.8462 6.55085 14.9926 6.56 15.1331 6.59718C15.2736 6.63437 15.4054 6.69886 15.5209 6.78697C15.6365 6.87509 15.7336 6.98511 15.8066 7.11074C15.8797 7.23637 15.9273 7.37516 15.9467 7.51919C15.9661 7.66321 15.9569 7.80964 15.9197 7.95013C15.8826 8.09062 15.8181 8.22241 15.7299 8.33797V8.37097Z" fill="#008009"/>
</svg>
