<svg width="20" height="31" viewBox="0 0 20 31" fill="none" xmlns="http://www.w3.org/2000/svg">
<path d="M17.9487 0H2.05128C1.50744 0.000610797 0.986039 0.216924 0.601481 0.601481C0.216924 0.986039 0.000610797 1.50744 0 2.05128V28.718C0.000610797 29.2618 0.216924 29.7832 0.601481 30.1678C0.986039 30.5523 1.50744 30.7686 2.05128 30.7692H17.9487C18.4926 30.7686 19.014 30.5523 19.3985 30.1678C19.7831 29.7832 19.9994 29.2618 20 28.718V2.05128C19.9994 1.50744 19.7831 0.986039 19.3985 0.601481C19.014 0.216924 18.4926 0.000610797 17.9487 0ZM17.9487 2.05128V4.10256H2.05128V2.05128H17.9487ZM17.9487 6.15385L17.9494 20.5128H2.05128V6.15385H17.9487ZM17.9487 28.718H2.05128V22.5641H17.9497V28.718H17.9487Z" fill="black"/>
<path d="M11.0256 24.6154H8.97437V26.6666H11.0256V24.6154Z" fill="black"/>
</svg>
