<svg width="28" height="21" viewBox="0 0 28 21" fill="none" xmlns="http://www.w3.org/2000/svg">
<path d="M23.4743 16.8287C23.4743 17.1076 23.2507 17.3086 22.9299 17.3086C22.5993 17.3086 22.3854 17.0953 22.3854 16.8287C22.3854 16.5621 22.5993 16.3488 22.9299 16.3488C23.2507 16.3488 23.4743 16.5621 23.4743 16.8287ZM8.36597 16.3488C8.02083 16.3488 7.82153 16.5621 7.82153 16.8287C7.82153 17.0953 8.02083 17.3086 8.36597 17.3086C8.68194 17.3086 8.89583 17.1076 8.89583 16.8287C8.89097 16.5621 8.68194 16.3488 8.36597 16.3488ZM14.0778 16.3365C13.8153 16.3365 13.6549 16.4801 13.616 16.6934H14.5444C14.5007 16.4596 14.3306 16.3365 14.0778 16.3365ZM19.3181 16.3488C18.9875 16.3488 18.7882 16.5621 18.7882 16.8287C18.7882 17.0953 18.9875 17.3086 19.3181 17.3086C19.6486 17.3086 19.8625 17.1076 19.8625 16.8287C19.8625 16.5621 19.6486 16.3488 19.3181 16.3488ZM24.466 17.4193C24.466 17.4316 24.4806 17.4398 24.4806 17.4645C24.4806 17.4768 24.466 17.485 24.466 17.5096C24.4514 17.5219 24.4514 17.5301 24.4417 17.5424C24.4271 17.5547 24.4174 17.5629 24.3882 17.5629C24.3736 17.5752 24.3639 17.5752 24.3347 17.5752C24.3201 17.5752 24.3104 17.5752 24.2812 17.5629C24.2667 17.5629 24.2569 17.5506 24.2424 17.5424C24.2278 17.5301 24.2181 17.5219 24.2181 17.5096C24.2035 17.4891 24.2035 17.4768 24.2035 17.4645C24.2035 17.4439 24.2035 17.4316 24.2181 17.4193C24.2181 17.3988 24.2326 17.3865 24.2424 17.3742C24.2569 17.3619 24.2667 17.3619 24.2812 17.3537C24.3056 17.3414 24.3201 17.3414 24.3347 17.3414C24.359 17.3414 24.3736 17.3414 24.3882 17.3537C24.4125 17.366 24.4271 17.366 24.4417 17.3742C24.4562 17.3824 24.4514 17.3988 24.466 17.4193ZM24.359 17.4768C24.3833 17.4768 24.3833 17.4645 24.3979 17.4645C24.4125 17.4521 24.4125 17.4439 24.4125 17.4316C24.4125 17.4193 24.4125 17.4111 24.3979 17.3988C24.3833 17.3988 24.3736 17.3865 24.3444 17.3865H24.2667V17.5301H24.3056V17.4727H24.3201L24.3736 17.5301H24.4125L24.359 17.4768ZM28 3.32227V17.7598C28 18.8467 26.9549 19.7285 25.6667 19.7285H2.33333C1.04514 19.7285 0 18.8467 0 17.7598V3.32227C0 2.23535 1.04514 1.35352 2.33333 1.35352H25.6667C26.9549 1.35352 28 2.23535 28 3.32227ZM3.11111 9.04805C3.11111 12.1857 6.12986 14.7287 9.84375 14.7287C11.166 14.7287 12.4639 14.3924 13.5625 13.7812C10.0188 11.349 10.0431 6.75938 13.5625 4.32715C12.4639 3.71191 11.166 3.37969 9.84375 3.37969C6.12986 3.37559 3.11111 5.92266 3.11111 9.04805ZM14 13.5105C17.4271 11.2547 17.4125 6.85781 14 4.58965C10.5875 6.85781 10.5729 11.2588 14 13.5105ZM7.08264 16.64C7.08264 16.2832 6.80556 16.0494 6.36806 16.0371C6.14444 16.0371 5.90625 16.0945 5.74583 16.3037C5.62917 16.1355 5.42986 16.0371 5.15278 16.0371C4.96806 16.0371 4.78333 16.0945 4.6375 16.2586V16.0781H4.23889V17.5834H4.6375C4.6375 16.8082 4.51597 16.3447 5.075 16.3447C5.57083 16.3447 5.47361 16.7631 5.47361 17.5834H5.85764C5.85764 16.8328 5.73611 16.3447 6.29514 16.3447C6.79097 16.3447 6.69375 16.7549 6.69375 17.5834H7.09236V16.64H7.08264ZM9.26528 16.0781H8.88125V16.2586C8.75 16.1232 8.56528 16.0371 8.3125 16.0371C7.81181 16.0371 7.42778 16.3734 7.42778 16.8287C7.42778 17.2881 7.81181 17.6203 8.3125 17.6203C8.56528 17.6203 8.75 17.5424 8.88125 17.3988V17.5875H9.26528V16.0781ZM11.234 17.1281C11.234 16.5129 10.1208 16.7918 10.1208 16.5047C10.1208 16.2709 10.6993 16.3078 11.0201 16.4596L11.1806 16.193C10.7236 15.9428 9.7125 15.9469 9.7125 16.5293C9.7125 17.1158 10.8257 16.8697 10.8257 17.1445C10.8257 17.4029 10.1694 17.3824 9.81944 17.1773L9.64931 17.4357C10.1938 17.7475 11.234 17.6818 11.234 17.1281ZM12.9549 17.5096L12.8479 17.2307C12.6632 17.3168 12.2549 17.4111 12.2549 17.0625V16.3816H12.8917V16.0781H12.2549V15.6187H11.8562V16.0781H11.4868V16.3775H11.8562V17.0625C11.8562 17.7844 12.6972 17.6531 12.9549 17.5096ZM13.6014 16.96H14.9382C14.9382 16.2955 14.5785 16.033 14.0924 16.033C13.5771 16.033 13.2076 16.357 13.2076 16.8246C13.2076 17.6654 14.3063 17.8049 14.8507 17.407L14.666 17.1609C14.2868 17.4234 13.7132 17.3988 13.6014 16.96ZM16.4743 16.0781C16.2507 15.9961 15.9104 16.0043 15.7354 16.2586V16.0781H15.3368V17.5834H15.7354V16.7344C15.7354 16.2586 16.1972 16.3201 16.3576 16.3898L16.4743 16.0781ZM16.9896 16.8287C16.9896 16.3611 17.5535 16.2094 17.9958 16.4842L18.1806 16.2176C17.6167 15.8443 16.591 16.0494 16.591 16.8328C16.591 17.6449 17.6799 17.809 18.1806 17.448L17.9958 17.1814C17.5486 17.448 16.9896 17.2881 16.9896 16.8287ZM20.2319 16.0781H19.8333V16.2586C19.4299 15.8074 18.3799 16.0617 18.3799 16.8287C18.3799 17.6162 19.4688 17.8418 19.8333 17.3988V17.5875H20.2319V16.0781ZM21.8701 16.0781C21.7535 16.0289 21.3354 15.9592 21.1313 16.2586V16.0781H20.7472V17.5834H21.1313V16.7344C21.1313 16.2832 21.5688 16.3119 21.7535 16.3898L21.8701 16.0781ZM23.8292 15.467H23.4451V16.2586C23.0465 15.8115 21.9917 16.0494 21.9917 16.8287C21.9917 17.6244 23.0854 17.8377 23.4451 17.3988V17.5875H23.8292V15.467ZM24.1986 12.3867V12.5754H24.2375V12.3867H24.3299V12.3539H24.1063V12.3867H24.1986ZM24.5194 17.4645C24.5194 17.4439 24.5194 17.4193 24.5049 17.3988C24.4903 17.3865 24.4806 17.366 24.466 17.3537C24.4514 17.3414 24.4271 17.3332 24.4125 17.3209C24.3882 17.3209 24.359 17.3086 24.3347 17.3086C24.3201 17.3086 24.2958 17.3209 24.2667 17.3209C24.2424 17.3332 24.2278 17.3414 24.2132 17.3537C24.1889 17.366 24.1743 17.3865 24.1743 17.3988C24.1597 17.4193 24.1597 17.4439 24.1597 17.4645C24.1597 17.4768 24.1597 17.4973 24.1743 17.5219C24.1743 17.5342 24.1889 17.5547 24.2132 17.567C24.2278 17.5793 24.2375 17.5875 24.2667 17.5998C24.291 17.6121 24.3201 17.6121 24.3347 17.6121C24.359 17.6121 24.3882 17.6121 24.4125 17.5998C24.4271 17.5875 24.4514 17.5793 24.466 17.567C24.4806 17.5547 24.4903 17.5342 24.5049 17.5219C24.5194 17.4973 24.5194 17.4768 24.5194 17.4645ZM24.675 12.3498H24.6069L24.5292 12.4934L24.4514 12.3498H24.3833V12.5713H24.4222V12.4031L24.5 12.5467H24.5535L24.6215 12.4031V12.5713H24.675V12.3498ZM24.8889 9.04805C24.8889 5.92266 21.8701 3.37559 18.1562 3.37559C16.834 3.37559 15.5361 3.71191 14.4375 4.32305C17.9424 6.75527 17.9958 11.3572 14.4375 13.7771C15.5361 14.3924 16.8438 14.7246 18.1562 14.7246C21.8701 14.7287 24.8889 12.1857 24.8889 9.04805Z" fill="#00A4E7"/>
<ellipse cx="10" cy="9" rx="7" ry="6" fill="#CF1928"/>
<ellipse cx="18" cy="9" rx="7" ry="6" fill="#FFD300"/>
</svg>
