<svg width="3" height="12" viewBox="0 0 3 12" fill="none" xmlns="http://www.w3.org/2000/svg">
<path d="M1.33333 7.33333C2.06971 7.33333 2.66667 6.73638 2.66667 6C2.66667 5.26362 2.06971 4.66667 1.33333 4.66667C0.596954 4.66667 0 5.26362 0 6C0 6.73638 0.596954 7.33333 1.33333 7.33333Z" fill="#231F20"/>
<path d="M1.33334 2.66667C2.06972 2.66667 2.66668 2.06971 2.66668 1.33333C2.66668 0.596954 2.06972 0 1.33334 0C0.596962 0 8.13802e-06 0.596954 8.13802e-06 1.33333C8.13802e-06 2.06971 0.596962 2.66667 1.33334 2.66667Z" fill="#231F20"/>
<path d="M1.33333 12C2.06971 12 2.66667 11.403 2.66667 10.6667C2.66667 9.93029 2.06971 9.33333 1.33333 9.33333C0.596954 9.33333 0 9.93029 0 10.6667C0 11.403 0.596954 12 1.33333 12Z" fill="#231F20"/>
</svg>
