<svg width="30" height="30" viewBox="0 0 30 30" fill="none" xmlns="http://www.w3.org/2000/svg">
<g clip-path="url(#clip0_404_795)">
<path d="M15 5C13.0222 5 11.0888 5.58649 9.4443 6.6853C7.79981 7.78412 6.51809 9.3459 5.76121 11.1732C5.00433 13.0004 4.8063 15.0111 5.19215 16.9509C5.578 18.8907 6.53041 20.6725 7.92894 22.0711C9.32746 23.4696 11.1093 24.422 13.0491 24.8079C14.9889 25.1937 16.9996 24.9957 18.8268 24.2388C20.6541 23.4819 22.2159 22.2002 23.3147 20.5557C24.4135 18.9112 25 16.9778 25 15C25 12.3478 23.9464 9.8043 22.0711 7.92893C20.1957 6.05357 17.6522 5 15 5ZM15 23.3333C13.3518 23.3333 11.7407 22.8446 10.3703 21.9289C8.99984 21.0132 7.93174 19.7117 7.30101 18.189C6.67028 16.6663 6.50525 14.9908 6.82679 13.3742C7.14834 11.7577 7.94201 10.2729 9.10745 9.10744C10.2729 7.94201 11.7577 7.14833 13.3743 6.82679C14.9908 6.50525 16.6663 6.67027 18.189 7.301C19.7118 7.93173 21.0132 8.99984 21.9289 10.3702C22.8446 11.7407 23.3333 13.3518 23.3333 15C23.3333 16.0943 23.1178 17.178 22.699 18.189C22.2802 19.2001 21.6664 20.1187 20.8926 20.8926C20.1187 21.6664 19.2001 22.2802 18.189 22.699C17.178 23.1178 16.0944 23.3333 15 23.3333Z" fill="#999999"/>
<path d="M14.9998 16.725C14.7125 16.725 14.437 16.6109 14.2338 16.4077C14.0306 16.2046 13.9165 15.929 13.9165 15.6417V10.6417C13.9165 10.3544 14.0306 10.0788 14.2338 9.87565C14.437 9.67249 14.7125 9.55835 14.9998 9.55835C15.2872 9.55835 15.5627 9.67249 15.7659 9.87565C15.969 10.0788 16.0832 10.3544 16.0832 10.6417V15.6417C16.0832 15.929 15.969 16.2046 15.7659 16.4077C15.5627 16.6109 15.2872 16.725 14.9998 16.725Z" fill="#999999"/>
<path d="M14.9585 20.4333C15.6489 20.4333 16.2085 19.8737 16.2085 19.1833C16.2085 18.493 15.6489 17.9333 14.9585 17.9333C14.2681 17.9333 13.7085 18.493 13.7085 19.1833C13.7085 19.8737 14.2681 20.4333 14.9585 20.4333Z" fill="#999999"/>
</g>
<defs>
<clipPath id="clip0_404_795">
<rect width="30" height="30" fill="white"/>
</clipPath>
</defs>
</svg>
