<svg width="50" height="50" viewBox="0 0 50 50" fill="none" xmlns="http://www.w3.org/2000/svg">
<path d="M45.3125 7.8125H4.6875C3.82324 7.8125 3.125 8.51074 3.125 9.375V40.625C3.125 41.4893 3.82324 42.1875 4.6875 42.1875H45.3125C46.1768 42.1875 46.875 41.4893 46.875 40.625V9.375C46.875 8.51074 46.1768 7.8125 45.3125 7.8125ZM16.5039 14.8438C18.2275 14.8438 19.6289 16.2451 19.6289 17.9688C19.6289 19.6924 18.2275 21.0938 16.5039 21.0938C14.7803 21.0938 13.3789 19.6924 13.3789 17.9688C13.3789 16.2451 14.7803 14.8438 16.5039 14.8438ZM41.5967 36.1865C41.5255 36.2463 41.4357 36.2791 41.3428 36.2793H8.65234C8.4375 36.2793 8.26172 36.1035 8.26172 35.8887C8.26172 35.7959 8.2959 35.708 8.35449 35.6348L16.6699 25.7715C16.8066 25.6055 17.0557 25.5859 17.2217 25.7227C17.2363 25.7373 17.2559 25.752 17.2705 25.7715L22.124 31.5332L29.8438 22.3779C29.9805 22.2119 30.2295 22.1924 30.3955 22.3291C30.4102 22.3437 30.4297 22.3584 30.4443 22.3779L41.6553 35.6397C41.7822 35.8008 41.7627 36.0498 41.5967 36.1865Z" fill="#066AFF"/>
</svg>
