<svg width="40" height="40" viewBox="0 0 40 40" fill="none" xmlns="http://www.w3.org/2000/svg">
<path d="M33.625 15.7143V9.28571C33.625 8.14907 33.1641 7.05898 32.3436 6.25526C31.5231 5.45153 30.4103 5 29.25 5H11.75C10.5897 5 9.47688 5.45153 8.65641 6.25526C7.83594 7.05898 7.375 8.14907 7.375 9.28571V15.7143C6.21468 15.7143 5.10188 16.1658 4.28141 16.9695C3.46094 17.7733 3 18.8634 3 20V30.7143H5.90937L7.375 35H9.5625L11.0281 30.7143H29.9719L31.4375 35H33.625L35.0906 30.7143H38V20C38 18.8634 37.5391 17.7733 36.7186 16.9695C35.8981 16.1658 34.7853 15.7143 33.625 15.7143ZM18.3125 15.7143H11.75V9.28571H18.3125M29.25 15.7143H22.6875V9.28571H29.25V15.7143Z" fill="#808080"/>
</svg>
