<svg width="35" height="29" viewBox="0 0 35 29" fill="none" xmlns="http://www.w3.org/2000/svg">
<path d="M6.96711 10.2875H6.60471L6.49194 10.6319L4.06054 18.0569L3.85714 18.678V5.05C3.85714 4.49611 4.2064 4.2 4.53571 4.2H30.4643C30.7936 4.2 31.1429 4.49611 31.1429 5.05V10.2875H30.4643H28.6964H28.4413L28.2916 10.494L27.1177 12.1135L26.1801 10.5324L26.0348 10.2875H25.75H20.4099H19.9099V10.7875V18.2125V18.7125H20.4099H25.6027H25.8686L26.0173 18.492L27.2232 16.7028L28.4291 18.492L28.5778 18.7125H28.8438H30.4643H31.1429V23.95C31.1429 24.5039 30.7936 24.8 30.4643 24.8H4.53571C4.2064 24.8 3.85714 24.5039 3.85714 23.95V18.7125H4.53571H6.00893H6.38686L6.48996 18.3489L6.86536 17.025H8.87207L9.24747 18.3489L9.35057 18.7125H9.7285H12.4911H12.9911V18.2125V15.8712L13.7824 18.3638L13.8931 18.7125H14.2589H15.5483H15.9084L16.0225 18.371L16.8527 15.8865V18.2125V18.7125H17.3527H18.642H19.142V18.2125V10.7875V10.2875H18.642H16.5418H16.1777L16.066 10.634L14.9221 14.1804L13.7765 10.6338L13.6647 10.2875H13.3008H11.0179H10.5179V10.7875V14.6694L9.20942 10.6333L9.09731 10.2875H8.73379H6.96711ZM30.8826 11.0614L31.1429 10.664V18.336L30.8826 17.9386L28.6306 14.5L30.8826 11.0614ZM24.5237 16.2356H22.1993V15.76H24.6457H24.8371L24.5237 16.2356ZM25.668 14.4991L25.1457 15.2917V15.26V13.7413V13.7014L25.668 14.4991ZM24.6701 12.975L24.8444 13.2413H24.6457H22.1993V12.975H24.6701ZM4.53571 0.5C2.25921 0.5 0.5 2.61904 0.5 5.05V23.95C0.5 26.381 2.25921 28.5 4.53571 28.5H30.4643C32.7408 28.5 34.5 26.381 34.5 23.95V5.05C34.5 2.61904 32.7408 0.5 30.4643 0.5H4.53571ZM7.64446 14.3794L7.77679 13.9526L7.90911 14.3794H7.64446Z" stroke="white"/>
</svg>
