<svg width="33" height="30" viewBox="0 0 33 30" fill="none" xmlns="http://www.w3.org/2000/svg">
<path d="M27.5 5H5.5C3.98337 5 2.75 6.12125 2.75 7.5V22.5C2.75 23.8787 3.98337 25 5.5 25H27.5C29.0166 25 30.25 23.8787 30.25 22.5V7.5C30.25 6.12125 29.0166 5 27.5 5ZM6.875 10.625C6.875 10.4592 6.94743 10.3003 7.07636 10.1831C7.2053 10.0658 7.38016 10 7.5625 10H11.6875C11.8698 10 12.0447 10.0658 12.1736 10.1831C12.3026 10.3003 12.375 10.4592 12.375 10.625V13.125C12.375 13.2908 12.3026 13.4497 12.1736 13.5669C12.0447 13.6842 11.8698 13.75 11.6875 13.75H7.5625C7.38016 13.75 7.2053 13.6842 7.07636 13.5669C6.94743 13.4497 6.875 13.2908 6.875 13.125V10.625ZM15.125 20H6.875V17.5H15.125V20ZM26.125 20H17.875V17.5H26.125V20Z" fill="#2FB8ED"/>
</svg>
