<svg width="15" height="15" viewBox="0 0 15 15" fill="none" xmlns="http://www.w3.org/2000/svg">
<path d="M9.26102 7.49805L14.631 2.1406C14.8661 1.90544 14.9982 1.5865 14.9982 1.25393C14.9982 0.921369 14.8661 0.602426 14.631 0.367268C14.3958 0.13211 14.0769 0 13.7443 0C13.4117 0 13.0928 0.13211 12.8576 0.367268L7.50018 5.73721L2.14273 0.367268C1.90757 0.13211 1.58863 -2.47779e-09 1.25606 0C0.9235 2.47779e-09 0.604557 0.13211 0.3694 0.367268C0.134242 0.602426 0.00213124 0.921369 0.00213124 1.25393C0.00213124 1.5865 0.134242 1.90544 0.3694 2.1406L5.73934 7.49805L0.3694 12.8555C0.252349 12.9716 0.159444 13.1097 0.0960434 13.2619C0.0326423 13.4141 0 13.5773 0 13.7422C0 13.907 0.0326423 14.0702 0.0960434 14.2224C0.159444 14.3746 0.252349 14.5127 0.3694 14.6288C0.485494 14.7459 0.623615 14.8388 0.775795 14.9022C0.927976 14.9656 1.0912 14.9982 1.25606 14.9982C1.42092 14.9982 1.58415 14.9656 1.73633 14.9022C1.88851 14.8388 2.02663 14.7459 2.14273 14.6288L7.50018 9.25888L12.8576 14.6288C12.9737 14.7459 13.1118 14.8388 13.264 14.9022C13.4162 14.9656 13.5794 14.9982 13.7443 14.9982C13.9091 14.9982 14.0724 14.9656 14.2246 14.9022C14.3767 14.8388 14.5149 14.7459 14.631 14.6288C14.748 14.5127 14.8409 14.3746 14.9043 14.2224C14.9677 14.0702 15.0004 13.907 15.0004 13.7422C15.0004 13.5773 14.9677 13.4141 14.9043 13.2619C14.8409 13.1097 14.748 12.9716 14.631 12.8555L9.26102 7.49805Z" fill="#666162"/>
</svg>
