<svg width="46" height="46" viewBox="0 0 46 46" fill="none" xmlns="http://www.w3.org/2000/svg">
<path d="M31.2656 21.5625H14.7344C14.5367 21.5625 14.375 21.7242 14.375 21.9219V24.0781C14.375 24.2758 14.5367 24.4375 14.7344 24.4375H31.2656C31.4633 24.4375 31.625 24.2758 31.625 24.0781V21.9219C31.625 21.7242 31.4633 21.5625 31.2656 21.5625Z" fill="#808080"/>
<path d="M23 2.875C11.8863 2.875 2.875 11.8863 2.875 23C2.875 34.1137 11.8863 43.125 23 43.125C34.1137 43.125 43.125 34.1137 43.125 23C43.125 11.8863 34.1137 2.875 23 2.875ZM23 39.7109C13.773 39.7109 6.28906 32.227 6.28906 23C6.28906 13.773 13.773 6.28906 23 6.28906C32.227 6.28906 39.7109 13.773 39.7109 23C39.7109 32.227 32.227 39.7109 23 39.7109Z" fill="#808080"/>
</svg>
