<svg width="32" height="32" viewBox="0 0 32 32" fill="none" xmlns="http://www.w3.org/2000/svg">
<g clip-path="url(#clip0_419_1397)">
<path d="M28.911 12.6719C28.911 12.2329 28.605 11.9999 28.044 11.9999H27.772V13.3829H28.033C28.605 13.3829 28.911 13.1389 28.911 12.6719ZM29.333 3.55591H2.66602C1.95877 3.55617 1.28056 3.83725 0.780462 4.33735C0.28036 4.83745 -0.000711526 5.51566 -0.000976562 6.22291V25.7789C-0.000711526 26.4862 0.28036 27.1644 0.780462 27.6645C1.28056 28.1646 1.95877 28.4456 2.66602 28.4459H29.333C30.0403 28.4456 30.7185 28.1646 31.2186 27.6645C31.7187 27.1644 31.9998 26.4862 32 25.7789V6.22291C31.9998 5.51566 31.7187 4.83745 31.2186 4.33735C30.7185 3.83725 30.0403 3.55617 29.333 3.55591ZM26.883 11.2719C28.139 11.2719 29.822 11.0439 29.822 12.6279C29.822 13.3279 29.455 13.7779 28.783 13.9169L30.216 15.8279H29.127L27.894 14.0059H27.772V15.8279H26.883V11.2719ZM23.778 11.2779H26.295V12.0559H24.667V13.0669H26.239V13.8339H24.667V15.0669H26.295V15.8339H23.778V11.2779ZM19.961 11.2779L21.178 14.3449L22.411 11.2779H23.383L21.411 15.9559H20.933L18.989 11.2779H19.961ZM16.855 11.1109C17.1805 11.1108 17.5028 11.1748 17.8035 11.2993C18.1042 11.4238 18.3774 11.6063 18.6075 11.8364C18.8377 12.0665 19.0202 12.3398 19.1447 12.6405C19.2691 12.9412 19.3332 13.2635 19.333 13.5889C19.3332 13.9144 19.2691 14.2366 19.1447 14.5374C19.0202 14.8381 18.8377 15.1113 18.6075 15.3414C18.3774 15.5715 18.1042 15.7541 17.8035 15.8785C17.5028 16.003 17.1805 16.067 16.855 16.0669C16.5296 16.067 16.2073 16.003 15.9066 15.8785C15.6059 15.7541 15.3327 15.5715 15.1025 15.3414C14.8724 15.1113 14.6899 14.8381 14.5654 14.5374C14.4409 14.2366 14.3769 13.9144 14.377 13.5889C14.3769 13.2635 14.4409 12.9412 14.5654 12.6405C14.6899 12.3398 14.8724 12.0665 15.1025 11.8364C15.3327 11.6063 15.6059 11.4238 15.9066 11.2993C16.2073 11.1748 16.5296 11.1108 16.855 11.1109ZM14.117 11.4499V12.5059C13 11.3889 11.517 12.2449 11.517 13.5619C11.517 14.9509 13.045 15.7009 14.117 14.6289V15.6849C12.467 16.4799 10.6 15.3679 10.6 13.5629C10.6 11.8299 12.439 10.6189 14.117 11.4519V11.4499ZM8.71702 15.1329C9.35002 15.1329 9.96202 14.2829 8.53402 13.7779C7.70102 13.4719 7.41202 13.1449 7.41202 12.5169C7.41202 11.2279 9.11202 10.7719 10.173 11.7229L9.70602 12.3229C9.12802 11.6779 8.32302 11.9789 8.32302 12.4619C8.32302 12.7059 8.47302 12.8449 9.00602 13.0339C10.017 13.4009 10.317 13.7279 10.317 14.4559C10.317 16.0949 8.16102 16.5339 7.17302 15.0839L7.74502 14.5339C7.95102 14.9279 8.29502 15.1339 8.71702 15.1339V15.1329ZM3.07802 15.8329H1.77802V11.2769H3.07802C4.52802 11.2769 5.52802 12.2209 5.52802 13.5599C5.52802 14.5879 4.79502 15.8319 3.07802 15.8319V15.8329ZM6.82802 15.8329H5.93902V11.2769H6.82802V15.8329ZM30.222 25.8329C30.2205 26.0533 30.1322 26.2643 29.9763 26.4202C29.8204 26.5761 29.6095 26.6643 29.389 26.6659H7.11102C17.644 24.6879 28.372 18.9329 30.222 17.7769V25.8329ZM4.11702 12.4219C3.82802 12.1499 3.47202 12.0549 2.90002 12.0549H2.66702V15.0659H2.90002C3.47202 15.0659 3.84402 14.9549 4.11702 14.7109C4.43402 14.4219 4.61102 13.9999 4.61102 13.5609C4.61102 13.1219 4.43302 12.6999 4.11702 12.4219Z" fill="#00ABEA"/>
</g>
<defs>
<clipPath id="clip0_419_1397">
<rect width="32" height="32" fill="white"/>
</clipPath>
</defs>
</svg>
