<svg width="10" height="6" viewBox="0 0 10 6" fill="none" xmlns="http://www.w3.org/2000/svg">
<path d="M4.98032 5.903C4.84934 5.90374 4.7195 5.87894 4.59824 5.83002C4.47698 5.78109 4.36669 5.709 4.2737 5.61788L0.292695 1.68523C0.199899 1.59356 0.12629 1.48474 0.0760692 1.36496C0.0258485 1.24519 1.95552e-09 1.11682 0 0.987185C-1.95552e-09 0.857546 0.0258485 0.729176 0.0760692 0.609405C0.12629 0.489634 0.199899 0.380808 0.292695 0.289139C0.385491 0.197471 0.495655 0.124755 0.616898 0.0751443C0.738142 0.0255337 0.86809 -1.93177e-09 0.999323 0C1.13056 1.93177e-09 1.2605 0.0255337 1.38175 0.0751443C1.50299 0.124755 1.61315 0.197471 1.70595 0.289139L4.98032 3.54341L8.26465 0.416951C8.3562 0.316383 8.46778 0.235559 8.5924 0.179532C8.71702 0.123505 8.85199 0.0934824 8.98889 0.0913398C9.1258 0.0891972 9.26167 0.114981 9.38802 0.16708C9.51438 0.219178 9.62849 0.296471 9.72322 0.394123C9.81795 0.491775 9.89127 0.607686 9.93859 0.734607C9.98591 0.861527 10.0062 0.996727 9.99822 1.13175C9.99023 1.26677 9.95412 1.39872 9.89215 1.51933C9.83019 1.63994 9.7437 1.74662 9.63809 1.8327L5.65709 5.62771C5.47509 5.80106 5.23312 5.89948 4.98032 5.903Z" fill="#6B6466"/>
</svg>
