<svg width="7" height="14" viewBox="0 0 7 14" fill="none" xmlns="http://www.w3.org/2000/svg">
<path d="M5.83854 13.9999C5.68912 14.0004 5.54148 13.9675 5.40648 13.9034C5.27147 13.8394 5.15253 13.746 5.0584 13.63L0.227529 7.63053C0.0804207 7.45162 0 7.22719 0 6.99559C0 6.76399 0.0804207 6.53957 0.227529 6.36065L5.22843 0.361218C5.3982 0.157021 5.64215 0.0286085 5.90663 0.0042311C6.1711 -0.0201463 6.43443 0.0615079 6.63868 0.23123C6.84294 0.400953 6.97138 0.644841 6.99577 0.909243C7.02015 1.17364 6.93848 1.4369 6.76871 1.6411L2.2979 7.00059L6.61868 12.3601C6.74098 12.5069 6.81868 12.6856 6.84256 12.8751C6.86644 13.0646 6.83552 13.257 6.75345 13.4296C6.67138 13.6021 6.5416 13.7475 6.37946 13.8485C6.21732 13.9496 6.02961 14.0022 5.83854 13.9999Z" fill="#0071C2"/>
</svg>
