<svg width="33" height="27" viewBox="0 0 33 27" fill="none" xmlns="http://www.w3.org/2000/svg">
<g clip-path="url(#clip0_419_1399)">
<path d="M20.6912 18.7531H12.3088V3.12476H20.6912V18.7531Z" fill="#6C6BBD"/>
<path d="M12.8409 10.9393C12.8409 7.76897 14.2716 4.94497 16.4998 3.12513C14.8704 1.79435 12.8139 1 10.5792 1C5.28866 1 1 5.44987 1 10.9393C1 16.4286 5.28866 20.8785 10.5792 20.8785C12.814 20.8785 14.8704 20.0842 16.4998 18.7534C14.2716 16.9335 12.8409 14.1095 12.8409 10.9393Z" fill="#D32011"/>
<path d="M32 10.9393C32 16.4286 27.7113 20.8785 22.4208 20.8785C20.186 20.8785 18.1296 20.0842 16.4996 18.7534C18.7284 16.9335 20.1591 14.1095 20.1591 10.9393C20.1591 7.76897 18.7284 4.94497 16.4996 3.12513C18.1296 1.79435 20.1861 1 22.4208 1C27.7113 1 32 5.44987 32 10.9393Z" fill="#0099DF"/>
<path d="M23.5275 23.1691C23.6389 23.1691 23.7991 23.1912 23.9215 23.2411L23.751 23.7821C23.634 23.7322 23.517 23.7157 23.405 23.7157C23.0432 23.7157 22.8623 23.9583 22.8623 24.3944V25.8743H22.3086V23.2354H22.8568V23.5558C23.0006 23.3239 23.2083 23.1691 23.5275 23.1691ZM21.4821 23.7599H20.5775V24.9523C20.5775 25.2171 20.6677 25.394 20.9449 25.394C21.0886 25.394 21.2694 25.3441 21.434 25.2449L21.5935 25.7359C21.4181 25.8628 21.1415 25.9407 20.9021 25.9407C20.2474 25.9407 20.019 25.576 20.019 24.9631V23.7599H19.5025V23.2354H20.019V22.4348H20.5775V23.2354H21.4821V23.7599ZM14.3988 24.323C14.4579 23.942 14.681 23.6823 15.075 23.6823C15.4313 23.6823 15.6602 23.9141 15.7187 24.323H14.3988ZM16.2938 24.5549C16.2882 23.732 15.7985 23.1691 15.0853 23.1691C14.3404 23.1691 13.819 23.7322 13.819 24.5548C13.819 25.3934 14.3617 25.94 15.1231 25.94C15.5062 25.94 15.857 25.8407 16.1658 25.5704L15.8942 25.1451C15.6817 25.322 15.4099 25.4212 15.1548 25.4212C14.7984 25.4212 14.4738 25.25 14.394 24.7755H16.2828C16.2882 24.7034 16.2937 24.6319 16.2937 24.5549H16.2938ZM18.7254 23.9091C18.5712 23.8092 18.2575 23.6822 17.9328 23.6822C17.6295 23.6822 17.4485 23.7985 17.4485 23.9918C17.4485 24.1681 17.6399 24.218 17.8793 24.2509L18.14 24.2895C18.6936 24.3729 19.0286 24.6156 19.0286 25.0794C19.0286 25.5817 18.6028 25.9406 17.8689 25.9406C17.4535 25.9406 17.0704 25.83 16.7669 25.5981L17.0278 25.1508C17.2141 25.2999 17.4913 25.4269 17.8743 25.4269C18.252 25.4269 18.4542 25.3113 18.4542 25.1065C18.4542 24.9581 18.3105 24.8746 18.0072 24.831L17.7464 24.7925C17.1769 24.7091 16.8681 24.4442 16.8681 24.014C16.8681 23.4895 17.2835 23.1691 17.9274 23.1691C18.3318 23.1691 18.6991 23.2633 18.9646 23.4452L18.7252 23.9091H18.7254ZM25.5502 23.7143C25.4364 23.7143 25.331 23.7353 25.2329 23.7764C25.138 23.8163 25.0518 23.8756 24.9795 23.9508C24.9068 24.0278 24.8496 24.1191 24.8114 24.2194C24.7706 24.3236 24.7505 24.4386 24.7505 24.5637C24.7505 24.6895 24.7706 24.8038 24.8114 24.9081C24.8522 25.0123 24.9083 25.1022 24.9795 25.1766C25.0518 25.2519 25.138 25.3112 25.2329 25.351C25.331 25.3927 25.4364 25.413 25.5502 25.413C25.664 25.413 25.7701 25.3929 25.8675 25.351C25.9628 25.3113 26.0495 25.252 26.1221 25.1766C26.1947 25.1022 26.2507 25.0123 26.2921 24.9081C26.333 24.8038 26.3531 24.6895 26.3531 24.5637C26.3531 24.4386 26.333 24.3236 26.2921 24.2194C26.2507 24.1151 26.1947 24.0254 26.1221 23.9508C26.0495 23.8754 25.9629 23.8161 25.8676 23.7764C25.7667 23.7346 25.659 23.7135 25.5503 23.7145L25.5502 23.7143ZM25.5502 23.1691C25.7476 23.1691 25.9303 23.2045 26.0984 23.2759C26.2609 23.343 26.4092 23.4426 26.5346 23.5691C26.658 23.6947 26.756 23.8446 26.8227 24.0101C26.892 24.1802 26.9268 24.3647 26.9268 24.5637C26.9268 24.7627 26.892 24.9473 26.8227 25.1172C26.756 25.2829 26.658 25.4331 26.5345 25.5589C26.4122 25.6834 26.2665 25.7808 26.0985 25.8522C25.9302 25.923 25.7476 25.9583 25.5502 25.9583C25.3528 25.9583 25.1701 25.923 25.002 25.8522C24.8339 25.7808 24.6896 25.6834 24.5678 25.5589C24.445 25.4327 24.3475 25.2826 24.2808 25.1172C24.2114 24.9473 24.1766 24.7627 24.1766 24.5637C24.1766 24.3647 24.2114 24.1802 24.2808 24.0102C24.3475 23.845 24.445 23.6951 24.5678 23.5691C24.6924 23.4425 24.84 23.3428 25.002 23.2759C25.1701 23.2045 25.3528 23.1691 25.5502 23.1691ZM11.1658 24.5548C11.1658 24.0911 11.4589 23.7101 11.9376 23.7101C12.3951 23.7101 12.7039 24.0746 12.7039 24.5549C12.7039 25.0351 12.3951 25.3991 11.9376 25.3991C11.4589 25.3991 11.1658 25.0187 11.1658 24.5549V24.5548ZM13.2253 24.5548V23.2354H12.6721V23.5558C12.4962 23.3182 12.2306 23.1691 11.8688 23.1691C11.1556 23.1691 10.5969 23.7485 10.5969 24.5548C10.5969 25.3606 11.1556 25.9406 11.8688 25.9406C12.2306 25.9406 12.4961 25.7915 12.6721 25.5539V25.8743H13.2253V24.5549V24.5548ZM10.1071 25.8744V24.2182C10.1071 23.5945 9.72398 23.1749 9.10701 23.1692C8.78236 23.1636 8.44668 23.2685 8.21285 23.6387C8.03739 23.3461 7.76032 23.1692 7.37173 23.1692C7.10061 23.1692 6.83444 23.252 6.62677 23.5609V23.2356H6.07373V25.8744H6.63222V24.4116C6.63222 23.9534 6.87707 23.7102 7.25464 23.7102C7.62204 23.7102 7.8084 23.9584 7.8084 24.4059V25.8744H8.367V24.4114C8.367 23.9533 8.62275 23.7101 8.98943 23.7101C9.36772 23.7101 9.54864 23.9583 9.54864 24.4058V25.8744H10.1071Z" fill="#110F0D"/>
</g>
<rect x="0.5" y="0.5" width="32" height="26" rx="3.5" stroke="#EDEDED"/>
<defs>
<clipPath id="clip0_419_1399">
<rect x="1" y="1" width="31" height="25" rx="3" fill="white"/>
</clipPath>
</defs>
</svg>
