<svg width="10" height="6" viewBox="0 0 10 6" fill="none" xmlns="http://www.w3.org/2000/svg">
<path d="M9.99995 0.995538C10.0003 1.12361 9.97676 1.25016 9.93103 1.36588C9.8853 1.48159 9.81855 1.58354 9.73569 1.66423L5.45038 5.80498C5.32258 5.93107 5.16228 6 4.99685 6C4.83142 6 4.67112 5.93107 4.54332 5.80498L0.258013 1.51849C0.112158 1.37297 0.0204347 1.16387 0.00302221 0.937177C-0.0143902 0.710485 0.0439342 0.484775 0.165165 0.3097C0.286395 0.134626 0.460601 0.0245285 0.649459 0.00362778C0.838317 -0.0172729 1.02636 0.0527353 1.17221 0.198252L5.00042 4.03037L8.82863 0.326847C8.93347 0.222013 9.06113 0.155421 9.19651 0.13495C9.33189 0.114478 9.46932 0.140983 9.59254 0.211329C9.71576 0.281675 9.81962 0.392918 9.89182 0.531895C9.96402 0.670871 10.0015 0.831765 9.99995 0.995538Z" fill="black"/>
</svg>
