<svg width="45" height="45" viewBox="0 0 45 45" fill="none" xmlns="http://www.w3.org/2000/svg">
<path d="M3.75 3.75H41.25" stroke="#013580" stroke-width="4" stroke-linecap="round" stroke-linejoin="round"/>
<path d="M35.625 3.75H9.375C8.33947 3.75 7.5 4.58947 7.5 5.625V39.375C7.5 40.4105 8.33947 41.25 9.375 41.25H35.625C36.6605 41.25 37.5 40.4105 37.5 39.375V5.625C37.5 4.58947 36.6605 3.75 35.625 3.75Z" fill="white" stroke="#013580" stroke-width="4" stroke-linejoin="round"/>
<path d="M18.75 30H26.25V41.25H18.75V30Z" stroke="#0071C2" stroke-width="4" stroke-linecap="round" stroke-linejoin="round"/>
<path d="M14.0625 11.25H15.9375" stroke="#0071C2" stroke-width="4" stroke-linecap="round"/>
<path d="M14.0625 16.875H15.9375" stroke="#0071C2" stroke-width="4" stroke-linecap="round"/>
<path d="M21.5625 11.25H23.4375" stroke="#0071C2" stroke-width="4" stroke-linecap="round"/>
<path d="M21.5625 16.875H23.4375" stroke="#0071C2" stroke-width="4" stroke-linecap="round"/>
<path d="M29.0625 11.25H30.9375" stroke="#0071C2" stroke-width="4" stroke-linecap="round"/>
<path d="M29.0625 16.875H30.9375" stroke="#0071C2" stroke-width="4" stroke-linecap="round"/>
<path d="M3.75 41.25H41.25" stroke="#013580" stroke-width="4" stroke-linecap="round" stroke-linejoin="round"/>
<path d="M26.25 30H28.125C28.6427 30 29.0716 29.5763 28.9728 29.0679C28.4547 26.405 25.7539 24.375 22.5 24.375C19.246 24.375 16.5452 26.405 16.0271 29.0679C15.9283 29.5763 16.3572 30 16.875 30H18.75" stroke="#0071C2" stroke-width="4" stroke-linecap="round" stroke-linejoin="round"/>
</svg>
