<svg width="22" height="22" viewBox="0 0 22 22" fill="none" xmlns="http://www.w3.org/2000/svg">
<path d="M11 0C8.8244 0 6.69767 0.645138 4.88873 1.85383C3.07979 3.06253 1.66989 4.78049 0.837329 6.79048C0.00476612 8.80046 -0.21307 11.0122 0.211367 13.146C0.635804 15.2798 1.68345 17.2398 3.22183 18.7782C4.7602 20.3165 6.72022 21.3642 8.854 21.7886C10.9878 22.2131 13.1995 21.9952 15.2095 21.1627C17.2195 20.3301 18.9375 18.9202 20.1461 17.1113C21.3548 15.3023 22 13.1756 22 11C22 9.55545 21.7155 8.12506 21.1627 6.79048C20.6099 5.4559 19.7996 4.24327 18.7782 3.22182C17.7567 2.20038 16.5441 1.39013 15.2095 0.837324C13.8749 0.284523 12.4445 0 11 0ZM15.73 8.37099L10.703 14.971C10.6005 15.1041 10.4689 15.212 10.3183 15.2863C10.1677 15.3607 10.002 15.3996 9.834 15.4C9.66691 15.4009 9.50182 15.3637 9.35125 15.2913C9.20068 15.2189 9.06859 15.1131 8.965 14.982L6.281 11.561C6.19216 11.4469 6.12667 11.3164 6.08826 11.1769C6.04986 11.0375 6.03929 10.8919 6.05717 10.7484C6.07504 10.6049 6.12101 10.4663 6.19244 10.3405C6.26388 10.2148 6.35938 10.1043 6.4735 10.0155C6.70397 9.83607 6.99628 9.75556 7.28612 9.79166C7.42963 9.80953 7.56822 9.8555 7.69396 9.92693C7.81971 9.99837 7.93016 10.0939 8.019 10.208L9.812 12.496L13.97 6.99599C14.0581 6.88043 14.1681 6.78335 14.2938 6.71031C14.4194 6.63726 14.5582 6.58968 14.7022 6.57027C14.8462 6.55086 14.9927 6.56001 15.1332 6.5972C15.2736 6.63438 15.4054 6.69888 15.521 6.78699C15.6366 6.87511 15.7336 6.98513 15.8067 7.11076C15.8797 7.23639 15.9273 7.37518 15.9467 7.51921C15.9661 7.66323 15.957 7.80967 15.9198 7.95015C15.8826 8.09064 15.8181 8.22243 15.73 8.33799V8.37099Z" fill="#008009"/>
</svg>
