<svg width="17" height="19" viewBox="0 0 17 19" fill="none" xmlns="http://www.w3.org/2000/svg">
<path d="M10.4956 9.27009L16.5814 2.64649C16.8479 2.35576 16.9976 1.96144 16.9976 1.55028C16.9976 1.13912 16.8479 0.7448 16.5814 0.454067C16.3148 0.163333 15.9534 0 15.5765 0C15.1996 0 14.8381 0.163333 14.5716 0.454067L8.5 7.09311L2.42837 0.454067C2.16186 0.163333 1.8004 -3.06338e-09 1.42351 0C1.04661 3.06338e-09 0.685149 0.163333 0.418643 0.454067C0.152137 0.7448 0.00241535 1.13912 0.00241535 1.55028C0.00241535 1.96144 0.152137 2.35576 0.418643 2.64649L6.50443 9.27009L0.418643 15.8937C0.285989 16.0372 0.180699 16.208 0.108847 16.3961C0.0369938 16.5843 0 16.7861 0 16.9899C0 17.1937 0.0369938 17.3955 0.108847 17.5837C0.180699 17.7718 0.285989 17.9426 0.418643 18.0861C0.550213 18.2308 0.706747 18.3457 0.879214 18.4241C1.05168 18.5025 1.23667 18.5428 1.42351 18.5428C1.61034 18.5428 1.79533 18.5025 1.9678 18.4241C2.14026 18.3457 2.2968 18.2308 2.42837 18.0861L8.5 11.4471L14.5716 18.0861C14.7032 18.2308 14.8597 18.3457 15.0322 18.4241C15.2047 18.5025 15.3897 18.5428 15.5765 18.5428C15.7633 18.5428 15.9483 18.5025 16.1208 18.4241C16.2933 18.3457 16.4498 18.2308 16.5814 18.0861C16.714 17.9426 16.8193 17.7718 16.8912 17.5837C16.963 17.3955 17 17.1937 17 16.9899C17 16.7861 16.963 16.5843 16.8912 16.3961C16.8193 16.208 16.714 16.0372 16.5814 15.8937L10.4956 9.27009Z" fill="#CBCBCB"/>
</svg>
