<svg width="20" height="20" viewBox="0 0 20 20" fill="none" xmlns="http://www.w3.org/2000/svg">
<path d="M3.33333 6.66667C3.09722 6.66667 2.89944 6.58694 2.74 6.4275C2.58 6.2675 2.5 6.06944 2.5 5.83333C2.5 5.59722 2.58 5.39917 2.74 5.23917C2.89944 5.07972 3.09722 5 3.33333 5H11.6667C11.9028 5 12.1008 5.07972 12.2608 5.23917C12.4203 5.39917 12.5 5.59722 12.5 5.83333C12.5 6.06944 12.4203 6.2675 12.2608 6.4275C12.1008 6.58694 11.9028 6.66667 11.6667 6.66667H3.33333ZM3.33333 10C3.09722 10 2.89944 9.92 2.74 9.76C2.58 9.60056 2.5 9.40278 2.5 9.16667C2.5 8.93056 2.58 8.7325 2.74 8.5725C2.89944 8.41306 3.09722 8.33333 3.33333 8.33333H11.6667C11.9028 8.33333 12.1008 8.41306 12.2608 8.5725C12.4203 8.7325 12.5 8.93056 12.5 9.16667C12.5 9.40278 12.4203 9.60056 12.2608 9.76C12.1008 9.92 11.9028 10 11.6667 10H3.33333ZM3.33333 13.3333C3.09722 13.3333 2.89944 13.2533 2.74 13.0933C2.58 12.9339 2.5 12.7361 2.5 12.5C2.5 12.2639 2.58 12.0658 2.74 11.9058C2.89944 11.7464 3.09722 11.6667 3.33333 11.6667H8.33333C8.56944 11.6667 8.7675 11.7464 8.9275 11.9058C9.08694 12.0658 9.16667 12.2639 9.16667 12.5C9.16667 12.7361 9.08694 12.9339 8.9275 13.0933C8.7675 13.2533 8.56944 13.3333 8.33333 13.3333H3.33333ZM13.0417 15.25L11.25 13.4583C11.0972 13.3056 11.0208 13.1111 11.0208 12.875C11.0208 12.6389 11.0972 12.4444 11.25 12.2917C11.4028 12.1389 11.5939 12.0625 11.8233 12.0625C12.0522 12.0625 12.25 12.1389 12.4167 12.2917L13.625 13.4583L16.5833 10.5C16.7361 10.3472 16.9269 10.2708 17.1558 10.2708C17.3853 10.2708 17.5833 10.3542 17.75 10.5208C17.9167 10.6875 17.9967 10.8889 17.99 11.125C17.9828 11.3611 17.8958 11.5625 17.7292 11.7292L14.2083 15.25C14.0556 15.4028 13.8611 15.4792 13.625 15.4792C13.3889 15.4792 13.1944 15.4028 13.0417 15.25Z" fill="white"/>
</svg>
