<svg width="30" height="30" viewBox="0 0 30 30" fill="none" xmlns="http://www.w3.org/2000/svg">
<path d="M28.3875 7.8625C28.2713 7.74534 28.133 7.65235 27.9807 7.58889C27.8284 7.52542 27.665 7.49275 27.5 7.49275C27.335 7.49275 27.1716 7.52542 27.0193 7.58889C26.867 7.65235 26.7287 7.74534 26.6125 7.8625L25 9.4875V2.5C25 2.16848 24.8683 1.85054 24.6339 1.61612C24.3995 1.3817 24.0815 1.25 23.75 1.25C23.4185 1.25 23.1005 1.3817 22.8661 1.61612C22.6317 1.85054 22.5 2.16848 22.5 2.5V9.4875L20.8875 7.8625C20.6521 7.62712 20.3329 7.49489 20 7.49489C19.6671 7.49489 19.3479 7.62712 19.1125 7.8625C18.8771 8.09788 18.7449 8.41712 18.7449 8.75C18.7449 9.08288 18.8771 9.40212 19.1125 9.6375L22.8625 13.3875C22.9814 13.5013 23.1216 13.5905 23.275 13.65C23.4246 13.7161 23.5864 13.7503 23.75 13.7503C23.9136 13.7503 24.0754 13.7161 24.225 13.65C24.3784 13.5905 24.5186 13.5013 24.6375 13.3875L28.3875 9.6375C28.5047 9.5213 28.5977 9.38305 28.6611 9.23072C28.7246 9.0784 28.7572 8.91501 28.7572 8.75C28.7572 8.58499 28.7246 8.4216 28.6611 8.26928C28.5977 8.11695 28.5047 7.9787 28.3875 7.8625ZM23.75 16.25C23.4185 16.25 23.1005 16.3817 22.8661 16.6161C22.6317 16.8505 22.5 17.1685 22.5 17.5V17.975L20.65 16.125C19.9968 15.4769 19.1139 15.1133 18.1938 15.1133C17.2736 15.1133 16.3907 15.4769 15.7375 16.125L14.8625 17L11.7625 13.9C11.1001 13.2695 10.2207 12.9179 9.30625 12.9179C8.39179 12.9179 7.51235 13.2695 6.85 13.9L5 15.75V8.75C5 8.41848 5.1317 8.10054 5.36612 7.86612C5.60054 7.6317 5.91848 7.5 6.25 7.5H16.25C16.5815 7.5 16.8995 7.3683 17.1339 7.13388C17.3683 6.89946 17.5 6.58152 17.5 6.25C17.5 5.91848 17.3683 5.60054 17.1339 5.36612C16.8995 5.1317 16.5815 5 16.25 5H6.25C5.25544 5 4.30161 5.39509 3.59835 6.09835C2.89509 6.80161 2.5 7.75544 2.5 8.75V23.75C2.5 24.7446 2.89509 25.6984 3.59835 26.4017C4.30161 27.1049 5.25544 27.5 6.25 27.5H21.25C22.2446 27.5 23.1984 27.1049 23.9017 26.4017C24.6049 25.6984 25 24.7446 25 23.75V17.5C25 17.1685 24.8683 16.8505 24.6339 16.6161C24.3995 16.3817 24.0815 16.25 23.75 16.25ZM6.25 25C5.91848 25 5.60054 24.8683 5.36612 24.6339C5.1317 24.3995 5 24.0815 5 23.75V19.2875L8.625 15.6625C8.80864 15.4875 9.05258 15.3899 9.30625 15.3899C9.55992 15.3899 9.80386 15.4875 9.9875 15.6625L13.95 19.625L19.325 25H6.25ZM22.5 23.75C22.4982 23.9893 22.4193 24.2216 22.275 24.4125L16.6375 18.75L17.5125 17.875C17.6021 17.7835 17.7091 17.7109 17.8271 17.6613C17.9452 17.6117 18.0719 17.5861 18.2 17.5861C18.3281 17.5861 18.4548 17.6117 18.5729 17.6613C18.6909 17.7109 18.7979 17.7835 18.8875 17.875L22.5 21.5125V23.75Z" fill="#2CA7FF"/>
</svg>
