<svg width="40" height="40" viewBox="0 0 40 40" fill="none" xmlns="http://www.w3.org/2000/svg">
<path d="M20.8337 11.6666C20.8337 9.81665 22.317 8.33331 24.167 8.33331H30.0003C31.8337 8.33331 33.3337 9.83331 33.3337 11.6666V15.2666C31.4003 15.95 30.0003 17.7833 30.0003 19.95V23.3333H20.8337V11.6666ZM10.0003 19.9333V23.3333H19.167V11.6666C19.167 9.81665 17.6837 8.33331 15.8337 8.33331H10.0003C8.16699 8.33331 6.66699 9.83331 6.66699 11.6666V15.25C8.60032 15.9333 10.0003 17.7833 10.0003 19.9333ZM34.4337 16.7166C32.8003 16.9833 31.667 18.5333 31.667 20.2V25H8.33366V20C8.33366 19.1159 7.98247 18.2681 7.35735 17.643C6.73223 17.0178 5.88438 16.6666 5.00033 16.6666C4.11627 16.6666 3.26842 17.0178 2.6433 17.643C2.01818 18.2681 1.66699 19.1159 1.66699 20V28.3333C1.66699 30.1666 3.16699 31.6666 5.00033 31.6666V35H8.33366V31.6666H31.667V35H35.0003V31.6666C36.8337 31.6666 38.3337 30.1666 38.3337 28.3333V20C38.3337 17.9833 36.517 16.3666 34.4337 16.7166Z" fill="#808080"/>
</svg>
