<svg width="80" height="64" viewBox="0 0 80 64" fill="none" xmlns="http://www.w3.org/2000/svg">
<path d="M33.3333 0V7.53333L40 11.9667V6.66667H73.3333V56.6667H56.6667V63.3333H80V0H33.3333ZM25 10L0 26.6667V63.3333H50V26.6667L25 10ZM46.6667 13.3333V16.4333L52.0333 20H53.3333V13.3333H46.6667ZM60 13.3333V20H66.6667V13.3333H60ZM25 18.3333L43.3333 30V56.6667H33.3333V36.6667H16.6667V56.6667H6.66667V30L25 18.3333ZM60 26.6667V33.3333H66.6667V26.6667H60ZM60 40V46.6667H66.6667V40H60Z" fill="#013580"/>
</svg>
