<svg width="32" height="22" viewBox="0 0 32 22" fill="none" xmlns="http://www.w3.org/2000/svg">
<g clip-path="url(#clip0_404_1367)">
<path d="M6.25521 0H14.2275C15.3403 0 16.0325 0.997838 15.773 2.22612L12.0612 19.7553C11.7993 20.9793 10.685 21.978 9.57146 21.978H1.59984C0.488588 21.978 -0.205162 20.9793 0.0544631 19.7553L3.76771 2.22612C4.02734 0.997838 5.14096 0 6.25521 0Z" fill="#E21836"/>
<path d="M13.5642 0H22.7322C23.8448 0 23.3432 0.997838 23.0814 2.22612L19.3702 19.7553C19.1099 20.9793 19.1911 21.978 18.0761 21.978H8.90819C7.79319 21.978 7.10319 20.9793 7.36506 19.7553L11.0759 2.22612C11.3394 0.997838 12.4508 0 13.5642 0Z" fill="#00447C"/>
<path d="M22.3686 0H30.3408C31.4553 0 32.1474 0.997838 31.8858 2.22612L28.1746 19.7553C27.9127 20.9793 26.7977 21.978 25.6833 21.978H17.7148C16.5998 21.978 15.9082 20.9793 16.1694 19.7553L19.8811 2.22612C20.1407 0.997838 21.2536 0 22.3686 0Z" fill="#007B84"/>
<path d="M8.33724 5.61761C7.51749 5.62682 7.27537 5.61761 7.19799 5.59753C7.16825 5.75291 6.615 8.56011 6.6135 8.56245C6.49437 9.13032 6.40774 9.53526 6.11324 9.79665C5.94624 9.94858 5.75112 10.022 5.52487 10.022C5.16137 10.022 4.9495 9.82332 4.914 9.44671L4.90712 9.31746C4.90712 9.31746 5.01787 8.55667 5.01787 8.55241C5.01787 8.55241 5.5985 5.99422 5.70249 5.65611C5.70799 5.63686 5.7095 5.62682 5.71087 5.61761C4.58075 5.62861 4.38037 5.61761 4.36662 5.59753C4.359 5.62503 4.331 5.78371 4.331 5.78371L3.73812 8.66708L3.68725 8.91156L3.58875 9.7114C3.58875 9.94858 3.63112 10.1423 3.71537 10.3061C3.9855 10.8253 4.756 10.9031 5.19187 10.9031C5.75337 10.9031 6.28025 10.7718 6.63625 10.5321C7.25412 10.1306 7.41587 9.50281 7.55999 8.94483L7.62687 8.6587C7.62687 8.6587 8.22499 6.00178 8.32662 5.65611C8.33037 5.63686 8.33199 5.62682 8.33724 5.61761ZM10.3722 7.76096C10.2281 7.76096 9.96474 7.79946 9.72799 7.92706C9.64212 7.9756 9.56087 8.03156 9.47512 8.08738L9.55249 7.78021L9.51012 7.72851C9.00824 7.8403 8.89587 7.85528 8.43224 7.92706L8.3935 7.95552C8.33962 8.4464 8.29174 8.81558 8.09224 9.7807C8.0158 10.1377 7.9378 10.4943 7.85824 10.8504L7.87949 10.8954C8.35474 10.8679 8.49887 10.8679 8.91187 10.8753L8.94524 10.8355C8.99774 10.5398 9.0045 10.4705 9.12075 9.87172C9.17537 9.58792 9.28925 8.96422 9.34537 8.74216C9.44849 8.6895 9.55037 8.6378 9.64749 8.6378C9.87899 8.6378 9.85074 8.85986 9.84187 8.94841C9.83187 9.09691 9.74762 9.58215 9.66112 9.99877L9.60337 10.2676C9.56325 10.4663 9.51912 10.6592 9.47887 10.8561L9.49637 10.8954C9.96462 10.8679 10.1075 10.8679 10.5074 10.8753L10.5544 10.8355C10.6267 10.3737 10.6479 10.2501 10.7761 9.57788L10.8406 9.26906C10.966 8.66447 11.029 8.35798 10.9341 8.10828C10.8339 7.82847 10.5932 7.76096 10.3724 7.76096H10.3722ZM12.6457 8.39387C12.3967 8.44653 12.238 8.48146 12.0802 8.50415C11.9239 8.53165 11.7712 8.55681 11.5307 8.59352L11.5116 8.6125L11.4941 8.62762C11.4691 8.8248 11.4516 8.99516 11.4184 9.1955C11.3902 9.40257 11.3469 9.63797 11.2764 9.97608C11.2217 10.2349 11.1936 10.3251 11.1625 10.4161C11.1321 10.5072 11.0987 10.5958 11.0374 10.8503L11.0517 10.8738L11.0637 10.8954C11.2886 10.8837 11.4357 10.8753 11.5869 10.8738C11.7379 10.8679 11.8944 10.8738 12.1364 10.8752L12.1576 10.8564L12.1804 10.8353C12.2154 10.6057 12.2205 10.544 12.2419 10.432C12.2631 10.3119 12.2996 10.1456 12.3892 9.70136C12.4316 9.49277 12.4787 9.28473 12.5227 9.07188C12.5684 8.85986 12.6161 8.65113 12.6616 8.44241L12.6549 8.41725L12.6457 8.39387ZM12.651 7.54055C12.4247 7.39369 12.0279 7.44031 11.7606 7.64312C11.4942 7.84195 11.4639 8.1241 11.6894 8.27287C11.9116 8.4156 12.3101 8.37311 12.575 8.16851C12.8409 7.96542 12.8741 7.68588 12.651 7.54055ZM14.0189 10.9415C14.4765 10.9415 14.9456 10.8026 15.2987 10.3911C15.5704 10.0572 15.695 9.56042 15.7381 9.35582C15.8785 8.67781 15.7691 8.36128 15.6319 8.16851C15.4231 7.87453 15.0542 7.78021 14.6716 7.78021C14.4416 7.78021 13.8936 7.80523 13.4655 8.23946C13.158 8.55255 13.016 8.97756 12.9304 9.38483C12.8439 9.80008 12.7444 10.5473 13.3691 10.8254C13.5619 10.9164 13.8397 10.9415 14.0189 10.9415ZM13.9831 9.41591C14.0886 8.90248 14.2132 8.47156 14.5311 8.47156C14.7802 8.47156 14.7984 8.79221 14.6876 9.30728C14.6677 9.42168 14.5769 9.84683 14.4539 10.0278C14.3679 10.1614 14.2664 10.2424 14.1539 10.2424C14.1205 10.2424 13.9217 10.2424 13.9186 9.91778C13.9171 9.75746 13.9469 9.5937 13.9831 9.41591ZM16.882 10.8755L16.9177 10.8355C16.9685 10.5398 16.9769 10.4704 17.0891 9.87186C17.1454 9.58792 17.2616 8.96436 17.3161 8.74216C17.4195 8.68936 17.5196 8.63766 17.6199 8.63766C17.8497 8.63766 17.8217 8.85972 17.8126 8.94827C17.8042 9.09705 17.7199 9.58201 17.6319 9.99863L17.5772 10.2674C17.5355 10.4663 17.49 10.659 17.4497 10.8562L17.4672 10.8955C17.9372 10.868 18.0745 10.868 18.4767 10.8755L18.5254 10.8355C18.5959 10.3735 18.615 10.25 18.7471 9.57788L18.81 9.26892C18.936 8.66433 18.9997 8.35812 18.9064 8.10842C18.8032 7.82861 18.5611 7.7611 18.3432 7.7611C18.1989 7.7611 17.9341 7.79932 17.6987 7.9272C17.6146 7.9756 17.5302 8.03142 17.4475 8.08752L17.5196 7.78034L17.4809 7.72837C16.9791 7.8403 16.8646 7.85528 16.4015 7.9272L16.3659 7.95552C16.3097 8.44653 16.2641 8.81545 16.0646 9.78083C15.9881 10.1378 15.9102 10.4943 15.8307 10.8504L15.852 10.8955C16.3279 10.868 16.4699 10.868 16.882 10.8755ZM20.3342 10.8954C20.3637 10.7367 20.5392 9.79678 20.5407 9.79678C20.5407 9.79678 20.6901 9.10695 20.6994 9.08192C20.6994 9.08192 20.7464 9.01015 20.7934 8.98168H20.8625C21.5152 8.98168 22.2524 8.98168 22.83 8.51418C23.2231 8.19353 23.4919 7.72012 23.6117 7.14468C23.6429 7.00361 23.6657 6.83586 23.6657 6.66811C23.6657 6.44769 23.6256 6.22962 23.5094 6.05926C23.2147 5.60592 22.6281 5.59753 21.9509 5.5941L21.6171 5.59753C20.7502 5.60936 20.4026 5.60592 20.2597 5.58667C20.2477 5.65611 20.225 5.77972 20.225 5.77972C20.225 5.77972 19.9145 7.36276 19.9145 7.36523L19.1364 10.8896C19.8932 10.8796 20.2036 10.8796 20.3342 10.8954ZM20.9096 8.08326C20.9096 8.08326 21.2396 6.50338 21.2381 6.50943L21.2489 6.42831L21.2535 6.36671L21.3855 6.38156C21.3855 6.38156 22.0664 6.44591 22.0822 6.44756C22.351 6.56196 22.4617 6.85676 22.3845 7.24148C22.3139 7.59321 22.1066 7.88883 21.8401 8.03156C21.6207 8.15256 21.352 8.1626 21.0751 8.1626H20.896L20.9096 8.08326ZM22.9651 9.4452C22.8779 9.85426 22.7776 10.6016 23.3992 10.8679C23.5975 10.9606 23.7751 10.9882 23.9555 10.9782C24.1462 10.9669 24.3229 10.8617 24.4865 10.7103L24.4421 10.8972L24.4704 10.9371C24.9175 10.9164 25.0562 10.9164 25.5406 10.9206L25.5846 10.8837C25.6552 10.4263 25.722 9.98213 25.9059 9.10695C25.9954 8.68785 26.0847 8.27273 26.1766 7.85528L26.1622 7.80936C25.6621 7.91125 25.5285 7.93311 25.0472 8.00805L25.0107 8.04077C25.0059 8.0834 25.0007 8.12423 24.9961 8.16507C24.9214 8.03211 24.8129 7.91853 24.6456 7.84786C24.4316 7.75518 23.9291 7.87453 23.4972 8.30711C23.1936 8.61607 23.0479 9.0393 22.9651 9.4452ZM24.0156 9.47022C24.1227 8.96587 24.2456 8.53935 24.5644 8.53935C24.7659 8.53935 24.872 8.74381 24.8504 9.09264C24.8319 9.18696 24.8127 9.2811 24.7929 9.37507C24.761 9.52495 24.7265 9.67345 24.6929 9.82222C24.6586 9.92397 24.6187 10.0199 24.5751 10.0839C24.4931 10.2118 24.298 10.291 24.1856 10.291C24.1537 10.291 23.9571 10.291 23.9504 9.97196C23.9487 9.81328 23.9785 9.64966 24.0156 9.47008V9.47022ZM29.5014 7.80523L29.4626 7.75669C28.9677 7.86697 28.8781 7.88457 28.4235 7.95208L28.39 7.9888C28.3885 7.99485 28.3871 8.00392 28.3847 8.01231L28.3832 8.00406C28.0447 8.86316 28.0546 8.67781 27.7791 9.35403C27.7775 9.32323 27.7775 9.30412 27.776 9.2714L27.707 7.80523L27.6637 7.75669C27.1452 7.86697 27.133 7.88457 26.6542 7.95208L26.6169 7.9888C26.6116 8.0064 26.6116 8.02565 26.6085 8.04655L26.6116 8.05411C26.6715 8.39043 26.6571 8.31536 26.7171 8.84638C26.7451 9.10695 26.7825 9.36902 26.8104 9.62642C26.8576 10.0571 26.8841 10.2691 26.9417 10.9265C26.6185 11.5133 26.5419 11.7355 26.2305 12.2506L26.2327 12.2557L26.0135 12.6371C25.9885 12.6773 25.9657 12.7048 25.9339 12.7166C25.8989 12.7356 25.8534 12.739 25.7902 12.739H25.6687L25.4882 13.3996L26.1076 13.4112C26.4711 13.4096 26.6996 13.2226 26.8226 12.9712L27.2121 12.2371H27.2059L27.2469 12.1854C27.5089 11.5652 29.5014 7.80523 29.5014 7.80523ZM22.9651 16.4798H22.7024L23.6749 12.942H23.9974L24.0999 12.5776L24.1096 12.9828C24.0976 13.2333 24.2767 13.4554 24.7474 13.4187H25.2917L25.479 12.7375H25.2742C25.1565 12.7375 25.1017 12.7048 25.1086 12.6346L25.0987 12.2223H24.0909V12.2245C23.765 12.2319 22.7917 12.2589 22.5947 12.3166C22.3564 12.384 22.1051 12.5829 22.1051 12.5829L22.2039 12.218H21.261L21.0645 12.942L20.0791 16.5339H19.8879L19.7004 17.2102H21.5782L21.5154 17.4357H22.4406L22.5021 17.2102H22.7616L22.9651 16.4798ZM22.1946 13.6608C22.0436 13.7067 21.7627 13.8462 21.7627 13.8462L22.0126 12.942H22.7616L22.581 13.6007C22.581 13.6007 22.3495 13.6158 22.1947 13.6608H22.1946ZM22.209 14.9525C22.209 14.9525 21.9737 14.9851 21.8189 15.0234C21.6664 15.0743 21.3802 15.2346 21.3802 15.2346L21.6384 14.2937H22.3912L22.209 14.9525ZM21.7892 16.4881H21.0379L21.2557 15.694H22.0047L21.7892 16.4881ZM23.5989 14.2937H24.682L24.5264 14.8483H23.4289L23.2641 15.4544H24.2245L23.4972 16.5806C23.4464 16.6634 23.4007 16.6927 23.35 16.7159C23.2991 16.7444 23.2322 16.7778 23.155 16.7778H22.8885L22.7055 17.4416H23.4022C23.7645 17.4416 23.9785 17.2604 24.1364 17.0225L24.6351 16.2718L24.7421 17.0341C24.7649 17.1768 24.8581 17.2604 24.9212 17.2929C24.991 17.3314 25.0631 17.3974 25.165 17.4073C25.2741 17.4124 25.353 17.4165 25.4055 17.4165H25.748L25.9535 16.6734H25.8185C25.741 16.6734 25.6074 16.6591 25.5847 16.6325C25.5619 16.5999 25.5619 16.55 25.5497 16.4738L25.441 15.7098H24.9962L25.1914 15.4544H26.2867L26.4552 14.8483H25.4411L25.599 14.2937H26.6101L26.7976 13.6099H23.7834L23.5989 14.2937ZM14.4507 16.6425L14.7035 15.7174H15.7426L15.9324 15.0293H14.8924L15.0511 14.46H16.0674L16.2557 13.7936H13.7129L13.5285 14.46H14.1062L13.9521 15.0292H13.3729L13.1809 15.7291H13.7584L13.4214 16.9531C13.376 17.1151 13.4427 17.1768 13.4851 17.2522C13.5285 17.3255 13.5724 17.374 13.6711 17.4015C13.773 17.4265 13.8427 17.4415 13.9375 17.4415H15.1089L15.3176 16.6792L14.7984 16.7577C14.6981 16.7577 14.4204 16.7445 14.4507 16.6425ZM14.5699 12.2139L14.3066 12.7374C14.2504 12.8516 14.1995 12.9227 14.1539 12.9553C14.1136 12.9828 14.0339 12.9945 13.9185 12.9945H13.7811L13.5975 13.6641H14.0537C14.2732 13.6641 14.4416 13.5757 14.5221 13.5314C14.6086 13.4805 14.6314 13.5096 14.6981 13.4386L14.8522 13.2918H16.277L16.4661 12.5946H15.4231L15.6052 12.2138H14.5699V12.2139ZM16.6732 16.656C16.649 16.6175 16.6665 16.5497 16.7036 16.4086L17.093 14.9908H18.4784C18.6802 14.9877 18.8259 14.9851 18.9209 14.9776C19.0226 14.9658 19.1334 14.9258 19.254 14.854C19.3786 14.7788 19.4424 14.6995 19.4961 14.6085C19.5561 14.5177 19.6526 14.3187 19.7354 14.0123L20.2249 12.218L18.7874 12.2272C18.7874 12.2272 18.3446 12.299 18.1497 12.3785C17.9531 12.4669 17.6721 12.714 17.6721 12.714L17.8019 12.2221H16.9139L15.6706 16.7577C15.6265 16.9337 15.5969 17.0616 15.5901 17.1385C15.5879 17.2211 15.685 17.303 15.748 17.3648C15.8224 17.4265 15.9324 17.4165 16.0379 17.4265C16.1489 17.4357 16.3066 17.4415 16.5245 17.4415H17.207L17.4164 16.6634L16.8055 16.7269C16.7401 16.7269 16.693 16.6884 16.6732 16.656ZM17.3442 14.0333H18.7992L18.7067 14.3522C18.6939 14.3596 18.6627 14.3363 18.5146 14.3556H17.2546L17.3442 14.0333ZM17.6357 12.9635H19.1031L18.9975 13.3477C18.9975 13.3477 18.306 13.3403 18.1952 13.3627C17.7077 13.4555 17.4231 13.7419 17.4231 13.7419L17.6357 12.9637V12.9635ZM18.7395 15.4201C18.7274 15.4678 18.7082 15.4968 18.6817 15.5187C18.6521 15.5396 18.6042 15.547 18.533 15.547H18.3257L18.338 15.1587H17.4755L17.4405 17.0575C17.4392 17.1944 17.4512 17.2738 17.5424 17.3373C17.6336 17.4165 17.9144 17.4267 18.2924 17.4267H18.8327L19.0277 16.7158L18.5574 16.7442L18.4009 16.7543C18.3796 16.7442 18.3591 16.735 18.3364 16.7101C18.3166 16.6886 18.2831 16.7018 18.2886 16.5648L18.2924 16.0781L18.7856 16.0556C19.0521 16.0556 19.166 15.9602 19.2631 15.8695C19.3557 15.7824 19.3861 15.6825 19.4211 15.547L19.5039 15.1161H18.8259L18.7394 15.42L18.7395 15.4201Z" fill="#FEFEFE"/>
</g>
<defs>
<clipPath id="clip0_404_1367">
<rect width="32" height="22" fill="white"/>
</clipPath>
</defs>
</svg>
