<svg width="34" height="34" viewBox="0 0 34 34" fill="none" xmlns="http://www.w3.org/2000/svg">
<path d="M1.69962 18.7001H3.3996V30.6C3.3996 32.4751 4.92449 34 6.79957 34H27.1994C29.0744 34 30.5993 32.4751 30.5993 30.6V18.7001H32.2993C32.6355 18.7001 32.9641 18.6003 33.2436 18.4135C33.5231 18.2267 33.7409 17.9613 33.8695 17.6507C33.9982 17.3401 34.0318 16.9983 33.9663 16.6686C33.9007 16.3389 33.7389 16.036 33.5012 15.7983L18.2014 0.498437C18.0436 0.340431 17.8563 0.215078 17.65 0.12955C17.4438 0.0440229 17.2227 0 16.9995 0C16.7762 0 16.5551 0.0440229 16.3489 0.12955C16.1427 0.215078 15.9553 0.340431 15.7976 0.498437L0.497733 15.7983C0.260059 16.036 0.0982098 16.3389 0.0326456 16.6686C-0.0329186 16.9983 0.000746209 17.3401 0.129384 17.6507C0.258022 17.9613 0.475857 18.2267 0.75535 18.4135C1.03484 18.6003 1.36345 18.7001 1.69962 18.7001ZM13.5995 30.6V22.1001H20.3994V30.6H13.5995ZM16.9995 4.1041L27.1994 14.304V22.1001L27.2011 30.6H23.7994V22.1001C23.7994 20.225 22.2745 18.7001 20.3994 18.7001H13.5995C11.7244 18.7001 10.1995 20.225 10.1995 22.1001V30.6H6.79957V14.304L16.9995 4.1041Z" fill="#013580"/>
</svg>
