<svg width="17" height="17" viewBox="0 0 17 17" fill="none" xmlns="http://www.w3.org/2000/svg">
<path d="M8.49996 0C6.81883 0 5.17545 0.498514 3.77764 1.4325C2.37983 2.36649 1.29037 3.694 0.647024 5.24716C0.00368289 6.80033 -0.164645 8.50938 0.163328 10.1582C0.491301 11.807 1.30084 13.3216 2.48958 14.5103C3.67832 15.6991 5.19287 16.5086 6.8417 16.8366C8.49053 17.1646 10.1996 16.9962 11.7527 16.3529C13.3059 15.7095 14.6334 14.6201 15.5674 13.2223C16.5014 11.8245 16.9999 10.1811 16.9999 8.49995C16.9999 7.38372 16.7801 6.27842 16.3529 5.24716C15.9257 4.2159 15.2996 3.27887 14.5103 2.48958C13.721 1.70029 12.784 1.07418 11.7527 0.647021C10.7215 0.219858 9.61619 0 8.49996 0ZM8.49996 15.2999C7.15505 15.2999 5.84035 14.9011 4.7221 14.1539C3.60385 13.4067 2.73228 12.3447 2.21761 11.1022C1.70294 9.85966 1.56828 8.49241 1.83065 7.17335C2.09303 5.85428 2.74067 4.64265 3.69166 3.69165C4.64265 2.74066 5.85429 2.09303 7.17335 1.83065C8.49241 1.56827 9.85966 1.70293 11.1022 2.21761C12.3447 2.73228 13.4067 3.60385 14.1539 4.7221C14.9011 5.84035 15.2999 7.15505 15.2999 8.49995C15.2999 10.3034 14.5835 12.033 13.3083 13.3083C12.033 14.5835 10.3034 15.2999 8.49996 15.2999Z" fill="#0071C2"/>
</svg>
