<svg width="25" height="37" viewBox="0 0 25 37" fill="none" xmlns="http://www.w3.org/2000/svg">
<path d="M12.437 0C5.56678 0 0 5.15778 0 11.5466C0 22.5934 12.437 37 12.437 37C12.437 37 24.8739 22.591 24.8739 11.5466C24.8739 5.1601 19.3071 0 12.437 0ZM12.437 17.9354C10.6558 17.9354 8.94754 17.2772 7.68806 16.1055C6.42857 14.9338 5.721 13.3447 5.721 11.6877C5.721 10.0308 6.42857 8.44164 7.68806 7.26998C8.94754 6.09832 10.6558 5.44008 12.437 5.44008C14.2181 5.44008 15.9264 6.09832 17.1858 7.26998C18.4453 8.44164 19.1529 10.0308 19.1529 11.6877C19.1529 13.3447 18.4453 14.9338 17.1858 16.1055C15.9264 17.2772 14.2181 17.9354 12.437 17.9354Z" fill="#FF0000"/>
</svg>
