<svg width="9" height="9" viewBox="0 0 9 9" fill="none" xmlns="http://www.w3.org/2000/svg">
<path d="M4.49998 0C3.60997 0 2.73994 0.263919 1.99992 0.758383C1.25991 1.25285 0.683135 1.95565 0.342542 2.77791C0.00194977 3.60017 -0.0871647 4.50497 0.0864678 5.37788C0.2601 6.25079 0.688681 7.05261 1.31801 7.68194C1.94735 8.31127 2.74917 8.73985 3.62208 8.91349C4.49499 9.08712 5.39978 8.998 6.22204 8.65741C7.04431 8.31682 7.74711 7.74005 8.24157 7.00003C8.73603 6.26001 8.99995 5.38999 8.99995 4.49998C8.99995 3.30651 8.52585 2.16192 7.68194 1.31801C6.83803 0.474103 5.69345 0 4.49998 0Z" fill="#0071C2"/>
</svg>
