<svg width="28" height="26" viewBox="0 0 28 26" fill="none" xmlns="http://www.w3.org/2000/svg">
<g clip-path="url(#clip0_404_1339)">
<path d="M22.8524 11.8852C22.8524 11.8852 23.2216 13.5647 23.3048 13.9165H21.6816L22.4595 11.9527C22.4499 11.9665 22.6196 11.5416 22.7168 11.2799L22.8524 11.8852ZM28 5.05537V20.9446C27.9998 21.5193 27.7539 22.0703 27.3163 22.4766C26.8787 22.883 26.2852 23.1113 25.6664 23.1116H2.33277C1.71393 23.1113 1.12049 22.883 0.682905 22.4766C0.245315 22.0703 -0.000622585 21.5193 -0.000854492 20.9446V5.05537C-0.000622585 4.48072 0.245315 3.92968 0.682905 3.52335C1.12049 3.11701 1.71393 2.88864 2.33277 2.88843H25.6664C26.2852 2.88864 26.8787 3.11701 27.3163 3.52335C27.7539 3.92968 27.9998 4.48072 28 5.05537ZM7.41302 16.3946L10.4851 9.38924H8.41927L6.50915 14.1741L6.30002 13.2039L5.61927 9.98074C5.50727 9.53387 5.16252 9.40712 4.73465 9.38924H1.5899L1.55577 9.52899C2.27596 9.69305 2.96679 9.95304 3.60677 10.3009L5.34715 16.3946H7.41302ZM12.0024 16.4036L13.2274 9.38924H11.2735L10.0538 16.4036H12.0024ZM18.8029 14.1107C18.8125 13.312 18.2875 12.7026 17.1649 12.2013C16.4798 11.8804 16.0615 11.6642 16.0615 11.3344C16.0711 11.0362 16.4168 10.7291 17.1841 10.7291C17.684 10.716 18.1806 10.807 18.6375 10.9956L18.8125 11.0719L19.0803 9.55499C18.5217 9.35642 17.9284 9.25533 17.3303 9.2568C15.4 9.2568 14.0438 10.2139 14.0341 11.5765C14.0193 12.5832 15.0063 13.143 15.7456 13.481C16.499 13.8239 16.7571 14.0497 16.7571 14.352C16.7475 14.8216 16.1446 15.0377 15.5855 15.0377C14.8076 15.0377 14.3894 14.9248 13.7524 14.6632L13.4951 14.5502L13.223 16.1257C13.6798 16.3199 14.5259 16.4913 15.4009 16.5002C17.4519 16.5043 18.7889 15.561 18.8038 14.1082L18.8029 14.1107ZM25.6664 16.4036L24.0914 9.38924H22.5794C22.113 9.38924 21.7578 9.51599 21.5583 9.9718L18.6559 16.4044H20.7069C20.7069 16.4044 21.042 15.5374 21.1155 15.353H23.6241C23.6828 15.6016 23.8578 16.4044 23.8578 16.4044L25.6664 16.4036Z" fill="#00A4E7"/>
</g>
<defs>
<clipPath id="clip0_404_1339">
<rect width="28" height="26" fill="white"/>
</clipPath>
</defs>
</svg>
