<svg width="17" height="17" viewBox="0 0 17 17" fill="none" xmlns="http://www.w3.org/2000/svg">
<path d="M8.49996 16.9999C6.81883 16.9999 5.17545 16.5014 3.77764 15.5674C2.37983 14.6334 1.29037 13.3059 0.647024 11.7527C0.00368289 10.1996 -0.164645 8.49053 0.163328 6.8417C0.491301 5.19287 1.30084 3.67832 2.48958 2.48958C3.67832 1.30084 5.19287 0.491301 6.8417 0.163328C8.49053 -0.164645 10.1996 0.00368289 11.7527 0.647024C13.3059 1.29037 14.6334 2.37983 15.5674 3.77764C16.5014 5.17545 16.9999 6.81883 16.9999 8.49996C16.9999 10.7543 16.1044 12.9163 14.5103 14.5103C12.9163 16.1044 10.7543 16.9999 8.49996 16.9999ZM8.49996 1.69999C7.15505 1.69999 5.84035 2.09881 4.7221 2.84599C3.60385 3.59318 2.73228 4.65519 2.21761 5.89772C1.70294 7.14025 1.56828 8.5075 1.83065 9.82656C2.09303 11.1456 2.74067 12.3573 3.69166 13.3083C4.64265 14.2592 5.85429 14.9069 7.17335 15.1693C8.49241 15.4316 9.85966 15.297 11.1022 14.7823C12.3447 14.2676 13.4067 13.3961 14.1539 12.2778C14.9011 11.1596 15.2999 9.84486 15.2999 8.49996C15.2999 6.69649 14.5835 4.9669 13.3083 3.69166C12.033 2.41642 10.3034 1.69999 8.49996 1.69999Z" fill="#0071C2"/>
</svg>
