<svg width="25" height="25" viewBox="0 0 25 25" fill="none" xmlns="http://www.w3.org/2000/svg">
<path d="M12.4994 6.24975C11.1876 6.24975 9.90915 6.66248 8.84501 7.42946C7.78087 8.19645 6.98504 9.27882 6.57023 10.5232C6.15542 11.7677 6.14267 13.1111 6.53379 14.3631C6.92491 15.6152 7.70006 16.7125 8.74945 17.4995V22.4994C8.74945 23.1625 9.01284 23.7983 9.48167 24.2672C9.9505 24.736 10.5864 24.9994 11.2494 24.9994H13.7494C14.4124 24.9994 15.0483 24.736 15.5171 24.2672C15.9859 23.7983 16.2493 23.1625 16.2493 22.4994V17.4995C17.2987 16.7125 18.0739 15.6152 18.465 14.3631C18.8561 13.1111 18.8433 11.7677 18.4285 10.5232C18.0137 9.27882 17.2179 8.19645 16.1537 7.42946C15.0896 6.66248 13.8111 6.24975 12.4994 6.24975ZM14.3743 15.7371C14.1836 15.8472 14.0253 16.0058 13.9156 16.1967C13.8058 16.3877 13.7485 16.6043 13.7494 16.8245V22.4994H11.2494V16.8245C11.2503 16.6043 11.1929 16.3877 11.0832 16.1967C10.9734 16.0058 10.8152 15.8472 10.6244 15.7371C10.0558 15.4088 9.5834 14.937 9.25437 14.3689C8.92533 13.8007 8.75122 13.1562 8.74945 12.4996C8.74945 11.5051 9.14453 10.5513 9.84778 9.84803C10.551 9.14478 11.5048 8.7497 12.4994 8.7497C13.4939 8.7497 14.4477 9.14478 15.151 9.84803C15.8542 10.5513 16.2493 11.5051 16.2493 12.4996C16.2475 13.1562 16.0734 13.8007 15.7444 14.3689C15.4154 14.937 14.9429 15.4088 14.3743 15.7371Z" fill="#231F20"/>
<path d="M12.4999 4.9999C12.8314 4.9999 13.1493 4.86821 13.3837 4.63379C13.6182 4.39938 13.7499 4.08144 13.7499 3.74993V1.24998C13.7499 0.918461 13.6182 0.600525 13.3837 0.366109C13.1493 0.131693 12.8314 0 12.4999 0C12.1684 0 11.8504 0.131693 11.616 0.366109C11.3816 0.600525 11.2499 0.918461 11.2499 1.24998V3.74993C11.2499 4.08144 11.3816 4.39938 11.616 4.63379C11.8504 4.86821 12.1684 4.9999 12.4999 4.9999Z" fill="#231F20"/>
<path d="M23.7495 11.2497H21.2496C20.9181 11.2497 20.6001 11.3813 20.3657 11.6158C20.1313 11.8502 19.9996 12.1681 19.9996 12.4996C19.9996 12.8311 20.1313 13.1491 20.3657 13.3835C20.6001 13.6179 20.9181 13.7496 21.2496 13.7496H23.7495C24.081 13.7496 24.399 13.6179 24.6334 13.3835C24.8678 13.1491 24.9995 12.8311 24.9995 12.4996C24.9995 12.1681 24.8678 11.8502 24.6334 11.6158C24.399 11.3813 24.081 11.2497 23.7495 11.2497Z" fill="#231F20"/>
<path d="M3.74993 11.2497H1.24998C0.918461 11.2497 0.600525 11.3813 0.366109 11.6158C0.131693 11.8502 0 12.1681 0 12.4996C0 12.8311 0.131693 13.1491 0.366109 13.3835C0.600525 13.6179 0.918461 13.7496 1.24998 13.7496H3.74993C4.08144 13.7496 4.39938 13.6179 4.63379 13.3835C4.86821 13.1491 4.9999 12.8311 4.9999 12.4996C4.9999 12.1681 4.86821 11.8502 4.63379 11.6158C4.39938 11.3813 4.08144 11.2497 3.74993 11.2497Z" fill="#231F20"/>
<path d="M7.07475 5.52467L5.27479 3.7497C5.03112 3.5193 4.70591 3.39513 4.3707 3.40451C4.03549 3.41389 3.71773 3.55604 3.48732 3.7997C3.25692 4.04337 3.13275 4.36858 3.14213 4.70379C3.1515 5.03901 3.29366 5.35677 3.53732 5.58717L5.33729 7.32463C5.45808 7.44127 5.60113 7.53237 5.7579 7.5925C5.91468 7.65264 6.08196 7.68057 6.24977 7.67463C6.41815 7.67398 6.58466 7.63933 6.73931 7.57274C6.89396 7.50616 7.03357 7.40901 7.14975 7.28713C7.37287 7.04316 7.49025 6.72073 7.4762 6.39041C7.46214 6.0601 7.31779 5.7488 7.07475 5.52467Z" fill="#231F20"/>
<path d="M21.4859 3.81243C21.2517 3.57962 20.9349 3.44894 20.6047 3.44894C20.2744 3.44894 19.9576 3.57962 19.7234 3.81243L17.9235 5.52489C17.6906 5.75909 17.56 6.0759 17.56 6.40613C17.56 6.73635 17.6906 7.05316 17.9235 7.28736C18.0396 7.40923 18.1792 7.50638 18.3339 7.57297C18.4885 7.63955 18.6551 7.67421 18.8234 7.67485C19.1453 7.67357 19.4542 7.5482 19.6859 7.32486L21.4859 5.58739C21.603 5.47119 21.696 5.33294 21.7595 5.18062C21.823 5.0283 21.8556 4.86492 21.8556 4.69991C21.8556 4.5349 21.823 4.37152 21.7595 4.2192C21.696 4.06688 21.603 3.92863 21.4859 3.81243Z" fill="#231F20"/>
</svg>
