<svg width="40" height="40" viewBox="0 0 40 40" fill="none" xmlns="http://www.w3.org/2000/svg">
<path d="M31.0023 15V9C31.0023 7.93913 30.5812 6.92172 29.8315 6.17157C29.0818 5.42143 28.0649 5 27.0047 5H15.0117C12.813 5 11.0141 6.8 11.0141 9V15C8.81539 15 6.79658 16.8 7.01645 19V29H9.67489L11.0141 33H13.0129L14.3521 29H27.6643L29.0035 33H31.0023L32.3416 29H35V19C35 17.9391 34.5788 16.9217 33.8291 16.1716C33.0794 15.4214 32.0626 15 31.0023 15ZM27.0047 15H15.0117V9H27.0047V15Z" fill="#808080"/>
</svg>
