<svg width="9" height="10" viewBox="0 0 9 10" fill="none" xmlns="http://www.w3.org/2000/svg">
<path d="M0.144877 4.14891C0.197355 4.21221 0.261804 4.26454 0.334535 4.30289C0.407265 4.34124 0.486847 4.36487 0.568722 4.37242C0.650598 4.37996 0.733158 4.37129 0.811675 4.34688C0.890191 4.32247 0.963121 4.28282 1.02629 4.23018L3.75179 1.96101V9.37487C3.75179 9.54066 3.81765 9.69966 3.93488 9.81689C4.05211 9.93413 4.21111 9.99999 4.3769 9.99999C4.54269 9.99999 4.70169 9.93413 4.81892 9.81689C4.93616 9.69966 5.00202 9.54066 5.00202 9.37487V1.96101L7.72751 4.23018C7.79073 4.28272 7.86366 4.32229 7.94217 4.34664C8.02067 4.37099 8.1032 4.37964 8.18505 4.37209C8.2669 4.36455 8.34646 4.34095 8.41919 4.30266C8.49191 4.26437 8.55639 4.21212 8.60893 4.14891C8.66146 4.0857 8.70104 4.01276 8.72539 3.93426C8.74974 3.85576 8.75839 3.77322 8.75084 3.69138C8.74329 3.60953 8.7197 3.52997 8.68141 3.45724C8.64311 3.38452 8.59087 3.32004 8.52766 3.2675L4.77697 0.141931L4.68321 0.0856703L4.60194 0.0419125C4.45712 -0.0139708 4.29668 -0.0139708 4.15186 0.0419125L4.0706 0.0856703L3.97683 0.141931L0.226142 3.2675C0.162844 3.31998 0.11052 3.38443 0.072168 3.45716C0.0338159 3.52989 0.0101889 3.60947 0.00264012 3.69135C-0.00490868 3.77322 0.00376918 3.85578 0.0281764 3.9343C0.0525837 4.01282 0.092241 4.08575 0.144877 4.14891Z" fill="#231F20"/>
</svg>
