<svg width="12" height="15" viewBox="0 0 12 15" fill="none" xmlns="http://www.w3.org/2000/svg">
<path d="M1.00002 14.25C0.998522 14.4471 1.07525 14.6367 1.21339 14.7773C1.35152 14.9179 1.53977 14.998 1.73687 15H10.2632C10.4603 14.998 10.6485 14.9179 10.7867 14.7773C10.9248 14.6367 11.0015 14.4471 11 14.25V4.25H1.00002V14.25ZM2.00002 5.25H10V14H2.00002V5.25Z" fill="#D90429"/>
<path d="M4.25 6.25H3.25V12.5H4.25V6.25Z" fill="#D90429"/>
<path d="M6.5 6.25H5.5V12.5H6.5V6.25Z" fill="#D90429"/>
<path d="M8.75 6.25H7.75V12.5H8.75V6.25Z" fill="#D90429"/>
<path d="M8.25 2.25V0.75C8.25 0.329437 7.9535 0 7.575 0H4.425C4.0465 0 3.75 0.329437 3.75 0.75V2.25H0V3.25H12V2.25H8.25ZM4.75 1H7.25V2.25H4.75V1Z" fill="#D90429"/>
</svg>
