<svg width="50" height="50" viewBox="0 0 50 50" fill="none" xmlns="http://www.w3.org/2000/svg">
<path d="M39 38.0001H11C9.3 38.0001 8 36.7001 8 35.0001V17.0001C8 15.3001 9.3 14.0001 11 14.0001H17C17.2 14.0001 17.5 13.8001 17.6 13.7001L18.7 11.5001C19.1 10.7001 20.1 10.1001 21 10.1001H29C29.9 10.1001 30.9 10.7001 31.3 11.5001L32.4 13.7001C32.5 13.9001 32.8 14.0001 33 14.0001H39C40.7 14.0001 42 15.3001 42 17.0001V35.0001C42 36.7001 40.7 38.0001 39 38.0001ZM11 16.0001C10.4 16.0001 10 16.4001 10 17.0001V35.0001C10 35.6001 10.4 36.0001 11 36.0001H39C39.6 36.0001 40 35.6001 40 35.0001V17.0001C40 16.4001 39.6 16.0001 39 16.0001H33C32.1 16.0001 31.1 15.4001 30.7 14.6001L29.6 12.4001C29.5 12.2001 29.2 12.0001 29 12.0001H21C20.8 12.0001 20.5 12.2001 20.4 12.3001L19.3 14.5001C18.9 15.4001 17.9 16.0001 17 16.0001H11Z" fill="#2CA7FF"/>
<path d="M25 34C20 34 16 30 16 25C16 20 20 16 25 16C30 16 34 20 34 25C34 30 30 34 25 34ZM25 18C21.1 18 18 21.1 18 25C18 28.9 21.1 32 25 32C28.9 32 32 28.9 32 25C32 21.1 28.9 18 25 18Z" fill="#2CA7FF"/>
<path d="M35 19C35.5523 19 36 18.5523 36 18C36 17.4477 35.5523 17 35 17C34.4477 17 34 17.4477 34 18C34 18.5523 34.4477 19 35 19Z" fill="#2CA7FF"/>
<path d="M12 12H16V13H12V12ZM25 21V20C22.2 20 20 22.2 20 25H21C21 22.8 22.8 21 25 21Z" fill="#2CA7FF"/>
</svg>
