<svg width="7" height="12" viewBox="0 0 7 12" fill="none" xmlns="http://www.w3.org/2000/svg">
<mask id="path-1-inside-1_97_26" fill="white">
<path d="M7 7.55139L6.39693 6.94832L3.92646 9.41876V0H3.07354V9.41876L0.603071 6.94832L0 7.55139L3.5 11.0514L7 7.55139Z"/>
</mask>
<path d="M7 7.55139L6.39693 6.94832L3.92646 9.41876V0H3.07354V9.41876L0.603071 6.94832L0 7.55139L3.5 11.0514L7 7.55139Z" fill="black"/>
<path d="M7 7.55139L9.82844 10.3798L12.6568 7.55138L9.82843 4.72296L7 7.55139ZM6.39693 6.94832L9.22536 4.11989L6.39695 1.29148L3.56852 4.11988L6.39693 6.94832ZM3.92646 9.41876H-0.0735377V19.0755L6.75487 12.2472L3.92646 9.41876ZM3.92646 0H7.92646V-4H3.92646V0ZM3.07354 0V-4H-0.926462V0H3.07354ZM3.07354 9.41876L0.245127 12.2472L7.07354 19.0755V9.41876H3.07354ZM0.603071 6.94832L3.43148 4.11988L0.603057 1.29148L-2.22535 4.11989L0.603071 6.94832ZM0 7.55139L-2.82843 4.72296L-5.65685 7.55138L-2.82844 10.3798L0 7.55139ZM3.5 11.0514L0.671562 13.8798L3.5 16.7083L6.32844 13.8798L3.5 11.0514ZM9.82843 4.72296L9.22536 4.11989L3.5685 9.77674L4.17157 10.3798L9.82843 4.72296ZM3.56852 4.11988L1.09805 6.59032L6.75487 12.2472L9.22534 9.77676L3.56852 4.11988ZM7.92646 9.41876V0H-0.0735377V9.41876H7.92646ZM3.92646 -4H3.07354V4H3.92646V-4ZM-0.926462 0V9.41876H7.07354V0H-0.926462ZM5.90195 6.59032L3.43148 4.11988L-2.22534 9.77676L0.245127 12.2472L5.90195 6.59032ZM-2.22535 4.11989L-2.82843 4.72296L2.82843 10.3798L3.4315 9.77675L-2.22535 4.11989ZM-2.82844 10.3798L0.671562 13.8798L6.32844 8.223L2.82844 4.72297L-2.82844 10.3798ZM6.32844 13.8798L9.82844 10.3798L4.17156 4.72297L0.671562 8.223L6.32844 13.8798Z" fill="black" mask="url(#path-1-inside-1_97_26)"/>
</svg>
